<?xml version="1.0" encoding="utf-8"?>
<!-- Generator: Adobe Illustrator 23.0.3, SVG Export Plug-In . SVG Version: 6.00 Build 0)  -->
<svg version="1.1" id="Object" xmlns="http://www.w3.org/2000/svg" xmlns:xlink="http://www.w3.org/1999/xlink" x="0px" y="0px"
	 viewBox="0 0 3281.12 1122" style="enable-background:new 0 0 3281.12 1122;" xml:space="preserve">
<style type="text/css">
	.st0{fill:#FFFFFF;}
</style>
<path class="st0" d="M1420.37,362.05c0.88-2.93,3.52-2.05,3.52-2.05s24.48,7.03,47.74,13.64c-3.21-8.98-7.85-16.73-10.92-21.35
	c-0.66,0.36-1.41,0.58-2.21,0.58c-2.57,0-4.65-2.08-4.65-4.65c0-0.68,0.15-1.31,0.41-1.89c-1.53-1.19-3.4-2.75-5.17-4.46
	c-3.18-3.06,0.11-6.69-1.59-9.07c-1.7-2.38-3.63-3.86-5.56-6.69c-1.93-2.84-4.42-5.9-6.69-9.87c-2.27-3.97-1.13-10.32-1.13-10.32
	c1.47,7.03,4.88,9.75,4.88,9.75c-1.93-2.15-3.74-10.32-3.74-10.32l1.7-1.7c2.95,1.93,8.96,16.1,8.39,14.18
	c-0.57-1.93-2.72-7.6-3.97-9.19c-1.25-1.59-3.29-6.01-3.29-6.01l2.95-2.27l2.15,3.4c0,0-1.25-3.52-0.79-4.31
	c0.45-0.79,1.7-1.25,1.7-1.25s-0.57-0.79,0.91,1.02c1.47,1.81,2.61,9.41,2.61,9.41c1.25-4.2-0.45-10.89-0.45-10.89
	c1.59,3.52,2.38,6.92,2.15,10.89c-0.23,3.97,3.4,10.43,3.4,10.43c0.91,3.74,2.72,8.28,3.4,10.32c0.68,2.04,0.34,3.97,0.23,5.44
	c-0.11,1.47,0.11,2.38,1.36,4.42c0.76,1.24,1.26,3.11,1.55,4.39c2.21,0.36,3.9,2.26,3.9,4.57c0,1.63-0.85,3.07-2.12,3.9
	c6.29,8.13,10.12,15.54,12.39,22.02c16.66,4.73,32.35,9.14,37.54,10.47c12.6,3.22,18.76,6.45,18.76,6.45
	c-4.1,34.59-19.05,94.09-19.05,94.09c-2.93-2.64-29.61-9.09-31.07-9.09c-1.47,0-7.62,1.47-8.79,1.17
	c-1.17-0.29-2.34,1.47-17.59-1.76c-15.24-3.22-21.4-13.48-21.4-13.48c-4.1-1.17-30.78-9.38-30.78-9.38
	S1419.49,364.98,1420.37,362.05z"/>
<path class="st0" d="M1052.58,555.61c3.43-0.94,2.5-3.43,2.5-3.43l-8.74-4.06c0,0-10.3,4.68-13.42,8.12
	c-3.12,3.43-3.12,1.87-3.12,1.87s-0.62-2.19,1.25-4.68c1.87-2.5,1.87-6.24,2.5-9.05c0.62-2.81,2.19-9.99,4.06-9.99
	c1.87,0,14.05-2.81,17.17-3.43c3.12-0.62,4.68-5.93,7.8-9.99c3.12-4.06,15.92-22.16,17.17-23.72c1.25-1.56,5.31-7.49,7.18-8.43
	c0,0,12.82,16.26,25.98,32.97c0.82-11.77-1.02-25.97-11.31-36.72c-9.36-9.77-13.56-16.33-15.27-21.24c-0.11,0-0.22,0.02-0.33,0.02
	c-5.17,0-9.36-4.19-9.36-9.36c0-0.6,0.06-1.18,0.17-1.74c-0.91-1.1-1.86-2.34-2.8-3.69c-3.38-4.9-2.5-5.75-3-10.17
	c-0.5-4.43-1-6.12-0.88-9.14s-0.5-5.93-1.25-8.57c-0.75-2.64-0.5-4.99-0.88-7.63c-0.38-2.64-2-5.46-2.63-6.88
	c-0.63-1.41-1.25-3.58-1.63-4.99c-0.38-1.41,0.5-4.33,0.5-4.33s0.38,1.41,1.25,5.09c0.88,3.67,1.75,2.73,2.88,3.86
	c1.13,1.13,1.88,2.73,2.13,4.71c0.25,1.98,4.88,13.19,4.01,10.74c-0.88-2.45-1.38-5.75-1.75-8.1c-0.38-2.36-2.25-6.03-3.63-8.38
	c-1.38-2.36-2.25-7.54-1.63-8.29c0.63-0.75,5.01-0.94,5.01-0.94s3,5.93,3,5.46c0-0.47-1.75-5.56-1.75-5.56l1.75-0.19
	c0,0,2-0.19,2.38,1.04c0.38,1.22,0.25,13.47,0.25,13.47l1,0.47c0.13-0.38,1-1.79,0.13-5.84c-0.88-4.05,0.88-8.76,0.88-8.76
	s-0.25,2.07,0.13,5.75c0.38,3.67,1.75,3.86,2.13,6.59c0.27,1.97-0.43,5.74-0.85,7.7c0.48-0.9,1.51-2.02,2.73-5.34
	c1.75-4.8-0.5-8.38-0.5-8.38c1.75,1.79,3.63,1.32,1.25,7.16c-2.38,5.84-5.63,21.01,1.13,31.18c1.23,1.85,2.19,3.47,2.94,4.89
	c3.65,1.28,6.28,4.74,6.28,8.83c0,4.25-2.83,7.83-6.7,8.97c1.67,4.5,4.47,9.6,9.2,14.44c11.79,12.08,18.01,22.05,15.75,44.77
	c9.03,11.46,18.12,22.99,23.27,29.53c12.8,16.23,10.3,20.6,8.12,24.97c-2.19,4.37-21.23,40.58-30.59,44.95l-16.86-22.16
	c0,0-8.74,1.87-15.61-0.62c-6.87-2.5-14.67-5.62-18.1-7.18c-3.43-1.56-11.24-4.68-14.36-6.24c-3.12-1.56-15.3-16.54-17.17-18.42
	c-1.87-1.87-3.43-2.19-3.43-2.19S1049.14,556.55,1052.58,555.61z"/>
<path class="st0" d="M985.14,256.52c1.81-21.07,1.2-24.07,1.2-24.07s10.53-4.21,15.35-3.61c0,0,7.22-28.29,8.13-31.9
	c0.9-3.61,2.41-5.72,3.01-1.81c0,0,26.81,12.84,49.58,24.36c16.53-18.19,9.7-29.35,4.97-33.95c-0.57,0.76-1.47,1.26-2.5,1.26
	c-1.73,0-3.13-1.4-3.13-3.13c0-0.12,0.02-0.23,0.03-0.34c-1.62-1.54-3.78-3.51-5.92-4.36c-3.4-1.36-11.11-13.43-9.83-12.75
	c1.29,0.68,2.57,3.11,2.66,3.5s9.55,7.4,9.55,7.4s-1.29-1.17-2.39-2.43c-1.1-1.27-1.84-2.63-2.3-3.89
	c-0.46-1.27-3.03-3.11-4.59-3.99c-1.56-0.88-1.47-3.8-1.47-3.8c0.46,0.19,2.57,1.65,3.49,2.53c0.92,0.88,2.2,2.24,2.75,2.82
	c0.55,0.58,2.57,1.65,2.57,1.65c-1.19-1.07-1.01-1.27-3.49-4.19c-2.48-2.92-3.95-3.11-3.86-3.41c0.09-0.29,1.74-2.73,1.74-2.73
	s2.2,0.1,3.03,0.58c0.83,0.49,0.83,2.43,1.65,3.7c0.83,1.27,3.77,5.06,3.77,5.06c-0.09-0.68,0.73-2.63-0.55-3.21
	c-1.29-0.58-3.03-5.55-3.03-5.55s3.67,4.28,4.59,5.74c0.92,1.46,1.19,3.99,1.56,6.23c0.37,2.24,1.56,4.38,3.03,6.03
	c0.62,0.7,0.97,1.62,1.18,2.46c1.2,0.44,2.06,1.58,2.06,2.93c0,0.31-0.06,0.6-0.14,0.88c5.65,3.45,6.27,10.86,6.78,15.7
	c0.32,3.05-4.88,11.49-10.85,19.94c15.62,7.92,29,15.07,29.97,16.77c2.41,4.21,0.6,5.42,0.6,5.42l-3.31,12.94
	c0,0-20.46,78.54-21.97,83.36c0,0-0.6,2.41-5.12-0.9c-4.51-3.31-45.14-21.97-51.76-26.48c-6.62-4.51-26.48-13.24-26.48-13.24
	l2.41-10.53C988.15,287.51,983.33,277.58,985.14,256.52z"/>
<path class="st0" d="M589.88,302.76c-1.45-3.01-1.08-4.58-1.08-7.47c0-2.89-1.33-6.27-0.96-9.4c0.36-3.13-1.33-13.01-1.33-13.01
	c1.2,1.2,2.53,4.1,3.13,5.9c0.6,1.81,1.57,5.18,1.21,7.95c-0.36,2.77,1.57,11.45,1.57,11.45c-1.08-4.22,0-7.23-0.12-9.88
	c-0.12-2.65-0.6-8.56-1.57-10.85c-0.96-2.29-2.17-4.46-2.17-4.46l3.25-1.81c0,0,2.53,0.12,3.13,0.48c0.6,0.36,1.08,3.25,1.2,4.82
	c0.12,1.57,2.29,8.19,2.29,8.19s-0.48-3.01-1.08-5.66c-0.6-2.65-1.33-7.35-1.33-7.35s2.17-0.72,2.05-0.36
	c-0.12,0.36,2.17,4.94,2.41,7.23c0.24,2.29,3.13,4.82,4.34,8.92c1.21,4.1-0.36,15.06-0.36,15.06c1.57-2.17,2.77-11.09,2.77-11.09
	c-0.12,1.69,0.24,7.83-1.57,11.33c-1.81,3.49-1.33,7.71-0.36,11.45c0.59,2.3,0.59,5.79,0.5,8.13c1.98,0.5,3.45,2.27,3.45,4.41
	c0,1.54-0.77,2.9-1.94,3.72c0.02,0.04,0.03,0.07,0.04,0.1c2.57,5.46,13.63,17.19,25.35,25.64c8.42,6.06,14.63,16.28,17.88,22.23
	c2-9.35,8.8-43.01,9.59-45.55l17.71,5.6l-2.53,2.71l-2.17,13.01c0,0,19.34,2.17,21.15,2.71c1.81,0.54,5.6,2.89,7.05,3.43
	c1.45,0.54,12.29,7.77,10.66,8.31c-1.63,0.54-4.7,2.17-5.06,2.71c-0.36,0.54-0.18,6.51-1.45,9.4c-1.27,2.89-1.99,9.04-2.71,11.39
	s-2.89,6.69-3.62,7.95c-0.72,1.27-3.43,5.96-3.8,7.77s-2.35,7.41-2.17,9.58c0.18,2.17,0.54,9.94-0.9,11.21
	c-1.45,1.27-3.8,0.36-3.8,0.36l-1.81,2.71c0,0-7.59-1.63-10.3-1.99c-2.71-0.36-18.08-3.62-18.08-3.62s-1.45,8.13-1.45,9.76
	s0.18,4.7,0.18,4.7l-17.53-0.36c0,0-0.9-6.15,0-9.4c0.86-3.1,9.08-43.98,10.34-49.49c-1.37-3.08-3.61-7.96-8.17-13.96
	c-6.87-9.04-15.91-15.18-21.33-18.8c-4.99-3.33-13.36-15.55-14.65-17.45c-0.35,0.08-0.7,0.14-1.08,0.14c-2.41,0-4.36-1.88-4.52-4.25
	c-1.94-1.98-4.43-4.87-4.52-5.73c-0.12-1.21-0.96-6.63-2.05-9.88c-1.08-3.25-12.77-15.3-12.77-15.3
	C585.42,298.18,591.32,305.77,589.88,302.76z"/>
<path class="st0" d="M483.31,515.83l-9.48-23.84l87.79-27.64c0,0,14.64,36.97,22.67,57.18c9.84,2.43,19.16,7.29,24.71,16.5
	c12.06,19.97,23.57,39.14,30.54,48.37c1.18-0.71,2.56-1.13,4.04-1.13c3.76,0,6.89,2.65,7.65,6.18c4.59,3.07,11.82,9.58,11.99,19.85
	c0.24,14.7-7.95,34.95-6.02,48.92c1.93,13.98,0.72,26.03-0.48,29.4c0,0-1.69-19.76-2.17-25.55c0,0,0.72,23.86-6.02,25.79l-6.75-1.45
	c0,0,2.17-10.36,3.62-17.59c0,0-4.82,12.29-6.99,16.39l-7.47-2.41c0,0-2.49-4.45,0.48-12.44c0.49-1.3,1.12-2.7,1.93-4.18
	c5.78-10.6,12.05-20.24,12.29-24.34c0,0-15.18,21.45-17.35,29.4c0,0,2.89-18.08,8.92-26.99c6.03-8.92,6.75-17.83,6.75-19.76
	c0-1.93-3.13-9.88-3.13-14.46c0-2.86-0.37-7.77-0.54-11.83c-2.67-1.25-4.52-3.95-4.52-7.09c0-2.16,0.87-4.11,2.29-5.53
	c-0.82-1.04-1.55-2.15-2.05-3.27c-1.93-4.34-32.05-49.41-39.28-54.23c-2.9-1.94-6.7-3.32-10.74-4.32c0.88,2.2,1.63,4.09,2.2,5.52
	c5.42,13.55,15.99,40.37,16.26,41.18c0.27,0.81-15.17,6.5-23.03,9.21c-7.86,2.71-61.78,21.95-61.78,21.95l-8.4-20.05
	c0,0-13.28-4.88-20.86-15.44c-7.59-10.57-16.53-38.2-15.17-43.62L483.31,515.83z"/>
<path class="st0" d="M230.09,334.5c0,0,1.36-1.16,2.91-1.94c1.55-0.78,1.55-6.2-0.39-13.76s5.81-18.02,5.81-18.02l24.81-11.82
	l-5.62-51.55l34.04,33.74c0.25-8.27-1.26-16.01-6.62-20.01c-10.8-8.08-14.48-14.25-16.03-18.38c-0.2,0.03-0.41,0.06-0.62,0.06
	c-2.45,0-4.43-1.99-4.43-4.43c0-1.08,0.4-2.06,1.04-2.83c-0.47-2.21-1.04-6.55-1.04-7.86c0-1.74-2.33-5.96-4.36-9.3
	c-2.04-3.34-2.33-5.81-3.78-9.74c-1.45-3.92-2.04-5.52-1.45-8.58c0.58-3.05-0.87-5.96-0.87-5.96c1.89,1.02,2.62,1.16,2.76,4.22
	c0.15,3.05,5.52,12.21,5.52,12.21c-0.15-0.44-2.03-5.09-2.62-6.69c-0.58-1.6-1.45-8.43-1.45-8.43l4.36-0.29l0.58,6.4
	c0-0.15,0-0.37,0-0.73c0-1.6,0.73-5.81,1.16-5.81s2.04-0.58,2.04,0.44c0,1.02,0.15,9.59,0.15,9.59s0.44,2.76,0.29-0.58
	c-0.15-3.34,1.45-9.88,1.45-9.88l-0.15,7.27c-0.73,4.65,3.49,14.1,5.67,22.24c1.62,6.06,0.03,10.51-0.9,12.38
	c0.29,0.59,0.46,1.24,0.46,1.94c0,1.78-1.06,3.31-2.58,4.02c1.8,4.47,5.85,12.02,13.48,15.39c8.32,3.67,10.05,12.9,9.26,24.67
	l31.88,31.61l-1.74,71.13c0,0-31.98-21.9-32.37-22.48c0,0-12.79,6.78-19.77,7.95c-6.98,1.16-18.41-3.29-22.29-5.23
	c-3.88-1.94-11.82-10.66-13.57-12.79c-1.74-2.13-4.46-4.26-4.46-4.26l2.52-1.94L230.09,334.5z"/>
<path class="st0" d="M775.87,1121.85h124.28c-0.04-0.09-0.07-0.18-0.11-0.26c-6.51-15.94-51.4-83.28-52.7-86.21
	c-1.3-2.93-5.2-5.2-5.2-7.48c0-2.28,0.65-4.55,3.58-14.96c2.93-10.41,4.88-41.31,6.83-57.58c1.95-16.27,3.9-43.92,3.9-43.92
	s1.95-3.58,4.88-6.18c2.93-2.6,11.39-9.43,13.99-11.39c2.6-1.95,2.93-6.51,3.9-12.04c0.98-5.53,0-11.39,0.33-14.31
	c0.33-2.93,0-7.81-2.6-14.96c-2.6-7.16-6.67-13.23-9.43-11.39c-3.9,2.6,0.98,14.64,0.98,14.64s-6.18,4.23-6.83,5.86
	c-0.65,1.63-9.11,6.83-11.39,7.48s-9.43,6.18-11.06,9.11c-1.63,2.93-3.9,12.04-4.88,18.22c-0.98,6.18-8.12,51.04-8.12,51.04
	l-0.74,5.01c-0.67,8.6-2.15,20.64-5.41,33.92c0,0-0.85,18.7-6.8,17.85c-5.95-0.85-22.52-2.97-24.64,7.22
	c-2.12,10.2,0.43,16.15,2.55,19.97c2.12,3.82-5.1,12.32-8.07,15.3c-2.97,2.97-9.77,12.75-9.77,17c0,4.25-0.43,10.62-0.43,10.62
	l6.37,8.5c0,0-1.27,12.32-0.85,17.85c0.42,5.52,0,6.37-1.7,12.32C775.89,1115.97,775.77,1118.98,775.87,1121.85z M850.89,879.98
	c0,0,4.71-4.63,5.57-5.89c0.86-1.26,2.2-2.51,2.2-2.51s8.63-0.71,10.83-1.33l0.16,2.43c0,0-1.33,0.55-2.04,1.26
	c-0.71,0.71-0.94,1.41-1.49,1.65c-0.55,0.24-2.28,0.78-2.9,1.49c-0.63,0.71-1.41,0.78-2.2,1.33c-0.78,0.55-4.71,0.94-6.2,1.1
	C853.32,879.66,850.89,879.98,850.89,879.98z"/>
<path class="st0" d="M56.97,1053.49c0.95-13.72,8.04-37.36,6.15-50.6c-1.89-13.24-3.78-19.39-1.42-30.27
	c2.36-10.88,1.89-14.66,5.2-18.44c3.31-3.78,5.2-4.73,5.2-4.73s4.26,7.57,6.62,7.09c2.36-0.47,1.42-46.82,3.31-59.12
	c1.89-12.3,2.37-66.68,5.2-72.36c2.84-5.68,6.15-17.03,4.26-26.01c-1.89-8.99-5.2-17.97-5.68-22.23
	c-0.47-4.26-7.57-16.08-9.93-19.39c-2.37-3.31-6.15-10.88-6.15-10.88s6.15-4.26,9.93-0.47l-7.57-15.13c0,0,1.89-5.68,10.4-1.42
	c8.51,4.26,9.46,9.93,11.82,15.61c2.36,5.68,12.3,23.17,14.19,26.48c1.89,3.31,4.73,2.84,8.04,8.99c3.31,6.15,6.62,14.66,6.62,14.66
	s5.68-17.03,13.24-15.13c7.57,1.89,5.68,2.84,2.37,8.51c-3.31,5.68-8.04,16.08-8.99,20.34c-0.95,4.26-4.26,11.35-7.57,15.61
	c-3.31,4.26-7.57,3.31-8.51,11.82c-0.94,8.51,0.47,52.5,0.95,68.58c0.47,16.08,3.31,43.98,4.73,51.55
	c1.42,7.57,1.89,18.92,3.31,21.76c1.42,2.84,7.57,8.99,9.46,16.08c1.89,7.09,10.88,18.92,9.93,35c-0.94,16.08-2.36,14.19-2.36,14.19
	s6.15,10.88,4.73,17.97c-1.42,7.09-3.31,6.62-2.37,8.99c0.95,2.36,7.57,8.04,9.46,12.77c0.02,0.06,0.05,0.11,0.08,0.17
	c0.13,5.26,0.33,10.53,0.59,15.81c-2.15,3.78-4.6,8-3.98,9.56c0.82,2.05,3.77,0.19,4.54,0.59c0.25,4.14,0.53,8.29,0.83,12.44H38.68
	C47.34,1095.89,56.33,1062.84,56.97,1053.49z"/>
<g>
	<path class="st0" d="M510.51,1118.11c2.36-0.95,6.62-2.84,6.62-6.62c0-3.78,1.42-13.72,2.84-15.13c1.42-1.42,2.36-4.73,4.26-7.57
		c1.89-2.84,6.15-10.88,8.99-15.13c2.84-4.26,11.82-12.77,11.82-12.77l2.84-3.78c0,0,10.4-34.52,13.71-54.39
		c3.31-19.86,4.73-49.19,4.73-51.55c0-2.36-3.78,0-3.31-3.78c0.47-3.78,2.84-4.26,1.89-7.57c-0.95-3.31-3.31-10.4-5.68-12.77
		c-2.36-2.36-7.57-12.3-9.46-15.13c-1.89-2.84-4.73-20.34-7.57-24.12c-2.84-3.78-8.04-6.62-8.04-8.04c0-1.42,4.73-4.73,9.46-1.42
		c4.73,3.31,11.82,11.82,11.82,11.82s4.73-33.11,11.82-33.11c7.23,0,2.36,11.35,0.47,16.08c-1.89,4.73-1.89,15.13-1.89,15.13
		l0.47,2.84l2.84-2.84c0,0,2.36-14.19,6.15-14.19c3.78,0,8.04,1.42,8.99,5.68c0,0,7.09-0.95,8.51,3.78
		c1.42,4.73,1.42,4.73,1.42,4.73s5.2,0,7.09,2.84c1.89,2.84,3.31,9.93,2.36,11.82c-0.95,1.89-0.47,13.24-0.95,17.97
		c-0.47,4.73-1.42,13.71-1.42,13.71l-2.36,4.73c0,0,4.73,0.95,3.31,4.73c-1.42,3.78-4.26,2.84-4.26,2.84s-1.89,8.99-1.42,13.72
		c0.47,4.73,4.26,47.77,3.31,56.28c-0.95,8.51-0.47,38.78-2.36,45.4c0,0,30.74,29.8,29.8,35c-0.78,4.28-3.16,16.23-5.82,24.55
		h-113.1C509.03,1119.92,509.75,1118.41,510.51,1118.11z"/>
</g>
<path class="st0" d="M1182.35,1079.06c2.76-3.68,2.38-7.5,0.23-11.28c1.7-1.29,2.87-2.41,2.87-3.01c0-2.13,2.56-20.06,3.41-23.47
	c0.85-3.41,1.28-5.12,1.28-5.12s-20.06-49.5-29.44-65.29c-9.39-15.79-20.06-20.06-24.75-20.91c-4.69-0.85-11.95-8.11-15.36-14.51
	c-3.41-6.4-7.25-10.67-6.83-13.23c0.43-2.56-0.85-14.93-1.28-16.64c-0.43-1.71,3.84-5.55,9.81,5.97
	c5.97,11.52,5.55,14.08,5.55,14.08s8.96-1.28,10.67-1.28c1.71,0,2.99-5.12,1.71-9.39c-1.28-4.27-0.85-10.67-3.84-14.93
	s-8.11-14.08-11.52-16.64c-3.41-2.56-8.96-5.97-9.39-7.25c-0.43-1.28-4.27-4.27,0.85-5.97c5.12-1.71,13.66,6.4,20.48,11.09
	c6.83,4.69,9.81,8.11,9.81,8.11s4.27-4.27-8.11-11.95c-12.38-7.68-17.92-12.37-11.52-16.64c0,0,11.95,4.27,16.64,8.96
	c0,0,6.83,0.43,10.24,1.71c3.41,1.28,10.24,5.12,11.52,5.97c1.28,0.85,8.53,17.5,10.67,20.91c2.13,3.41,0.85,7.25,0,9.81
	c-0.85,2.56-6.83,13.23-4.27,17.07c2.56,3.84,5.12,4.69,7.25,9.39c2.13,4.69,15.79,19.2,18.78,22.62
	c2.99,3.41,15.36,15.79,15.36,15.79s0.43-4.69,2.13-5.55c1.71-0.85,0-14.93,5.55-19.63c5.55-4.69,22.62-14.93,39.26-13.23
	c16.64,1.71,46.51,1.71,51.21,1.71c4.69,0,15.36-0.85,15.36-0.85s18.78,29.87,17.92,35.84c-0.85,5.97,0.43,10.67,0.85,15.36
	c0.43,4.69-1.28,18.35-1.71,21.76c-0.43,3.41-2.56,21.76-2.13,28.59c0.43,6.83-1.71,27.31-3.41,34.14
	c-1.71,6.83-5.12,11.52-8.96,16.22c-3.84,4.69-5.97,8.11-10.24,14.08c-4.27,5.97-7.68,10.24-6.83,13.23c0.37,1.29,0.82,3.94,1,7.15
	h-141.39C1168.48,1108.46,1170.61,1094.06,1182.35,1079.06z"/>
<g>
	<path class="st0" d="M1536.66,1120.44c2.82-6.49,3.67-7.9,4.52-7.06c0.85,0.85,16.66-27.67,35.57-49.12
		c18.91-21.45,31.62-42.34,35.29-53.07c3.67-10.73,3.67-24.28,9.88-34.16c6.21-9.88,16.66-30.21,17.78-29.64
		c0,0,6.49-17.78,10.16-17.5c0,0-1.41-4.52,5.08-1.98c6.49,2.54-0.28,27.67-3.11,37.83c0,0,6.49-14.11,9.6-22.58
		c0,0,10.45-6.21,3.39,20.33c-7.06,26.54-8.19,28.23-7.9,29.64c0.28,1.41-0.28,9.88-0.28,9.88l3.11,0.28c0,0,5.36-12.7,11.29-18.91
		c5.93-6.21,14.96-7.34,12.7-0.56c-2.26,6.78-3.67-2.26-7.62,14.68c-3.95,16.94-5.36,12.99-7.06,18.07
		c-1.69,5.08-10.44,11.01-14.68,14.11c-4.23,3.11-13.83,5.65-21.17,14.68c-7.34,9.03-15.53,22.3-20.04,31.05
		c-4.52,8.75-16.94,28.23-21.45,43.47c-0.21,0.7-0.39,1.33-0.58,1.98h-55.17C1536.26,1121.29,1536.5,1120.81,1536.66,1120.44z"/>
</g>
<path class="st0" d="M984.09,1095.6c4.52-7.3,8.35-16,8.7-18.43c0.35-2.43,5.56-45.56,6.61-63.3c1.04-17.74,1.04-59.12-1.04-64.34
	c-2.09-5.22-7.3-11.13-8.35-17.04c-1.04-5.91,0-10.43-3.83-16.69c-3.83-6.26-9.74-13.56-12.52-18.43
	c-2.78-4.87-4.17-10.09-4.52-11.48c-0.35-1.39,4.17-5.56,12.17,3.13c8,8.69,9.04,15.65,15.65,16.35c6.61,0.7,11.13,2.09,12.87,0
	c1.74-2.09,9.04-9.39,9.04-10.43c0-1.04-6.26-14.26-5.22-17.04c1.04-2.78,4.87-4.52,5.22-1.04c0.35,3.48,2.43,5.91,3.48,7.65
	c1.04,1.74,1.04,1.74,1.04,1.74s7.65-6.61,7.65-9.74c0-3.13-2.09-17.39,1.04-21.22c3.13-3.83,4.87-2.43,4.87-2.43l1.04,6.96
	c0,0,1.74-17.04,10.78-13.91c1.04,0.36-1.74,8.69-1.74,8.69s3.48,0.35,2.78,2.43c-0.7,2.09-2.43,6.96-2.43,11.48
	c0,4.52-2.09,7.3-2.78,13.56c-0.7,6.26-4.52,10.78-5.22,15.65c-0.7,4.87-1.04,11.82-2.43,15.3c-1.39,3.48-6.26,14.61-5.91,17.74
	s-2.09,10.43-2.43,15.3c-0.35,4.87-0.35,8,0.35,11.82s0,9.74,0,15.3c0,5.56,2.09,35.13,2.78,49.39c0.7,14.26,3.83,31.65,3.83,31.65
	s8,27.13,9.39,34.08c1.39,6.96,0.7,14.61-2.09,21.91c-0.61,1.6-2.08,5.86-4.04,11.64h-64.85
	C977.79,1110.44,981.86,1099.19,984.09,1095.6z"/>
<path class="st0" d="M638.83,1106.89c-0.87-6.61-1.39-8.35-1.39-8.35s-6.09,0.87-7.48-0.7c-1.39-1.57,0-2.09,0.7-3.3
	c0.7-1.22,4.87-4,4.17-6.09c-0.7-2.09-2.09-21.04,1.04-28.34c3.13-7.3,3.13-8.69,7.83-14.43c4.7-5.74,7.13-11.83,8-13.22
	c0.87-1.39,2.78-3.3,3.83-5.74c1.04-2.43,2.26-4.17,3.83-7.83c1.57-3.65,0.87-5.04,2.96-8.35c2.09-3.3,3.13-5.04,5.22-6.43
	c2.09-1.39,11.3-5.22,11.3-5.22s-5.39-43.13-6.78-45.39c-1.39-2.26-15.48-30.78-16-32c-0.52-1.22,10.26-8.69,10.61-9.91
	c0.35-1.22-5.22-22.78-7.3-26.61c-2.09-3.83-13.91-20.35-16-36.69c-2.09-16.35-2.09-22.78-2.61-23.65c-0.52-0.87-6.26-12.87-8-13.91
	c-1.74-1.04-8.35-4.7-9.22-5.56c-0.87-0.87-3.13-3.83-1.39-4.87c1.74-1.04,7.83-0.52,12.17,1.39c4.35,1.91,11.13,4.35,12.35,5.22
	c1.22,0.87,3.13-1.04,1.22-4.7c-1.91-3.65-16.87-24.69-18.26-26.61c-1.39-1.91-3.83-5.04-0.52-8c3.3-2.96,8.69,6.61,10.61,7.65
	c1.91,1.04,5.04,5.56,6.43,7.13c1.39,1.56,10.26,10.09,11.65,11.82c1.39,1.74,2.78,3.48,2.78,3.48s-0.87-11.65-2.61-14.43
	c-1.74-2.78-12.35-23.13-12.87-26.26c-0.52-3.13,0.17-5.04,3.83-4.7c3.65,0.35,6.26,5.74,8.35,9.04c2.09,3.3,9.91,15.48,11.82,17.56
	c1.91,2.09,3.48,3.48,3.83,5.91c0.35,2.43,1.04,5.74,1.04,5.22c0-0.52,2.09-5.39,1.74-8c-0.35-2.61-1.57-10.61-2.09-12.69
	c-0.52-2.09-3.13-9.04-3.13-10.78s-2.55-8.44,5.33-6.91c3.73,0.72,3.95,7.54,6.46,12.03c2.51,4.49,2.69,10.41,4.13,14
	c1.44,3.59,2.87,6.82,1.79,10.77c-1.08,3.95-2.69,9.15-3.23,14c-0.54,4.85-0.9,14.36-0.9,18.49c0,4.13-0.54,16.33,0.36,26.74
	c0.9,10.41,0.9,16.33,2.33,18.49c1.44,2.15,4.85,7.54,7.54,15.62c2.69,8.08,5.56,16.87,5.56,16.87s4.49,1.44,5.56,6.28
	c1.08,4.85,14.18,31.59,16.33,35.54c2.15,3.95,6.1,14,7.54,16.33c1.44,2.33,5.21,11.13,5.56,12.92c0.36,1.79,10.77,17.05,14,20.46
	c3.23,3.41,14.9,12.74,14.36,12.56c-0.54-0.18-2.51,4.13-2.87,7.18c-0.36,3.05,0.9,6.1-0.18,9.51c-1.08,3.41-1.44,5.56-1.44,5.56
	s4.49,10.05,6.1,27.28c1.62,17.23,2.33,23.15,2.33,25.31c0,2.15,0.18,5.74,0.18,5.74s5.74,6.1,8.62,12.03
	c0,0,16.16,12.31,27.92,26.47H637.64C638.5,1116.65,639.29,1110.36,638.83,1106.89z"/>
<path class="st0" d="M242.66,1098.85c1.85-8.9,8.53-33.74,12.61-44.87c4.08-11.12,30.41-51.17,33.74-60.44
	c3.34-9.27,16.32-33,16.32-35.23c0-2.22,2.22-1.11,1.85-2.22c-0.37-1.11,5.56-5.56,4.82-15.2c-0.74-9.64-7.79-30.78-7.79-35.23
	c0-4.45,2.6-5.93,2.97-9.27c0.37-3.34,0-9.64,0.37-14.09c0.37-4.45,1.85-7.05,3.71-10.75c1.85-3.71,8.16-17.06,8.53-20.39
	c0.37-3.34,5.93-4.08,9.64,1.48l-0.37,5.19c0,0,2.97,2.97,0,6.3l-0.37,12.24c0,0,3.34-11.49,8.16-10.01
	c4.82,1.48,4.45,9.64,2.97,17.8c-1.48,8.16-1.48,12.61-0.37,15.94c1.11,3.34,3.34,7.42,4.08,9.27c0.74,1.85,1.11,4.82,2.22,5.93
	c1.11,1.11,10.75,4.82,12.61,5.56c1.85,0.74,8.16,0,8.16,0s17.06-14.83,26.33-14.83c9.27,0,10.38,4.08,10.38,4.08
	s-7.42,5.56-10.01,10.38c-2.6,4.82-6.67,5.19-9.27,7.79c-2.6,2.6-7.79,7.42-8.9,10.01c-1.11,2.6-9.27,10.38-14.83,11.87
	c-5.56,1.48-12.98,9.27-13.35,12.61c-0.37,3.34-1.85,5.93-1.85,5.93l1.85,2.6c0,0-4.45,5.93-6.3,9.27
	c-1.85,3.34-3.71,18.91-4.82,21.51c-1.11,2.6-2.97,7.42-2.6,9.27c0.37,1.85-1.85,8.9-1.85,10.75c0,1.85-0.74,10.38-0.37,18.54
	c0.37,8.16,0.37,18.17,0,20.76c-0.37,2.6,4.82,3.71,1.85,10.38c-2.97,6.67-5.19,7.42-4.82,12.98s6.3,10.01,4.45,12.98
	c-1.85,2.97-4.82,7.42-5.93,11.49c-1.11,4.08-0.37,10.75,0.74,12.61c0,0,0.01,0.01,0.01,0.01h-87.19
	C240.54,1114.36,241.53,1104.27,242.66,1098.85z"/>
<path class="st0" d="M585.51,1119.85c-2.51-6.28-28.26-28.26-35.8-32.66c-7.54-4.4-8.17-5.02-12.56-5.65
	c-4.4-0.63-19.47-11.93-21.98-12.56c-2.51-0.63-21.36-11.93-21.36-11.93s-0.71-14.19-1.62-16.19c-0.91-2-2.36-3.63-2.36-3.63
	s0.91-3.27,0.73-3.99c-0.18-0.73,11.07-21.78,11.8-25.95c0,0,1.45,3.63,4.9,3.81c3.45,0.18,7.8-4.54,9.26-7.8
	c1.45-3.27,5.63-13.43,5.63-17.24c0-3.81-2.18-5.63-4.9-6.17c-2.72-0.54-4.54,0.18-4.54,0.18s2.9-7.8,3.27-14.52
	c0.36-6.71,1.81-16.15,2.36-16.15c0.48,0,45.16-19.61,58.19-26.01c0.25,2.81,0.86,8.54,2.15,15.63c1.84,10.14,4.61,13.6,13.37,19.13
	c8.76,5.53,3.92,12.91,3.92,12.91s0,0-3.69,1.38c-3.69,1.38-1.15,4.61-1.38,5.53c-0.23,0.92-0.69,7.38-1.84,11.99
	c-1.15,4.61,3.23,16.37,3.23,16.37c-0.92-4.15-1.15-13.6-1.15-13.6c2.31,2.07,4.84,17.06,4.84,17.06c5.3-4.61-0.23-17.98-0.23-17.98
	c2.31,2.54,3.23,9.91,3.23,9.91c1.15-3-0.69-6.69-2.07-10.14c-1.38-3.46,0-9.45,2.77-12.91c2.77-3.46-2.07-7.15-2.07-7.15
	c4.15-10.6-5.99-14.75-13.37-22.59c-6.01-6.39-6.36-21.04-6.28-26.25c0.93-0.47,1.61-0.84,1.93-1.06c0,0-1.81-2.54-2.72-3.09
	c-0.91-0.54-107.44-59.34-109.25-60.25c-1.81-0.91-7.26,4.17-11.8,5.99c-4.54,1.81-90.92,33.21-92.19,34.48
	c-1.27,1.27-0.73,3.45,0.73,4.36c1.45,0.91,51,30.67,51,30.67s-2.9,13.79-3.27,16.7c-0.36,2.9-1.45,9.8-1.27,11.61
	c0.18,1.81,0.36,3.99,0.36,3.99s-3.99-1.81-7.8,2.54c-3.81,4.36-2.18,7.44-2.18,12.7c0,5.26-1.09,9.98-0.54,10.71
	c0.54,0.73,4.17,9.62,8.89,9.44s5.99-1.45,5.99-1.45s1.81,4.72,1.81,5.26c0,0.54-8.71,12.16-10.89,16.33
	c-2.18,4.17-7.99,8.53-9.07,9.98c-1.09,1.45-4.9,0-4.9,0s-19.96-4.9-24.14-4.17c0,0-16.33-6.17-19.06-7.08
	c-2.72-0.91-8.35-3.09-8.89-4.54c-0.54-1.45-2.9-7.62-2.54-9.07c0.36-1.45,3.63-3.81,2.54-10.53c-1.09-6.72-4.9-13.43-4.9-13.43
	s-11.07-1.81-17.24-1.81s-13.43,3.45-15.97-3.27c-2.54-6.71-7.44-26.31-10.53-31.21c-3.09-4.9-15.43-21.23-14.34-26.31
	c1.09-5.08,0.18-20.51,0-28.49c0,0,6.53,1.63,7.26-12.89c0.73-14.52-0.73-25.95,1.45-27.95c2.18-2,9.8-9.26,10.34-13.07
	c0.54-3.81,0.18-16.51,2-20.14c1.81-3.63,2.18-11.25,3.63-13.43s8.89-9.07,13.25-12.34c4.36-3.27,7.44-7.8,8.17-8.53
	c0.73-0.73,2.36-4.72,1.45-11.8c-0.91-7.08,0.91-10.16,0.54-11.07c-0.36-0.91-1.81-2.36-1.45-3.27c0.36-0.91,5.08-8.53,4.54-12.89
	c-0.54-4.36-10.16-5.08-12.34-2.9c-2.18,2.18-2.18,2.18-2.18,2.18s-7.44-3.81-9.62-3.63c-2.18,0.18-8.35-0.36-11.07,1.63
	c-2.72,2-4.36,4.54-4.36,4.54s-5.81-2.18-8.53-1.09c-2.72,1.09-5.63,3.63-6.35,3.45c-0.73-0.18-5.81,0.18-7.8,1.82
	c-2,1.63-4.72,9.26-5.63,13.07c-0.91,3.81-2.69,17.53-2.69,17.53s-7.18-1.96-14.36,15.66c0,0-7.83,8.48-18.27,14.36
	c-10.44,5.87-40.46,17.62-50.9,47.64c-10.44,30.02-16.97,45.03-21.53,49.59c-4.57,4.57-22.19,31.98-31.32,57.43
	c-9.14,25.45-17.62,40.46-17.62,40.46s-9.79,1.31-11.09,7.18c-1.31,5.87,1.3,30.67-1.31,40.46c-2.61,9.79-7.83,21.53-9.79,26.75
	c-1.96,5.22-1.31,19.58,0,23.49c0.71,2.13,0.84,10.24,2.18,17.93h502.07C586.01,1121.08,585.72,1120.38,585.51,1119.85z"/>
<path class="st0" d="M1016.54,1094.81c-21.36-4.24-32.66-7.22-32.66-7.22s0-3.77-5.81-3.61c-5.81,0.16-12.56,0.16-12.56,0.16
	l-2.2,2.04c0,0-13.82-1.41-15.7-0.94c-1.88,0.47-2.2-8.64-2.36-9.74c-0.16-1.1,1.41-0.63,1.41-0.63s-8.79-15.7-10.21-16.8
	c-1.41-1.1-2.98-2.83-2.98-2.83s-0.31-8.95,1.1-10.36c1.41-1.41,5.81-14.76,5.34-15.55c-0.47-0.79,2.83,2.51,5.65,1.26
	c2.83-1.26,4.4-7.38,4.55-8.64c0.16-1.26,0-5.5,0.94-7.07c0.94-1.57,1.26-4.4,0.79-6.12c-0.47-1.73-3.14-8.17-3.93-8.32
	c-0.79-0.16,0.31-3.14,0.31-4.87c0-1.73,1.1-5.02,1.41-5.81c0.31-0.79-0.16-4.71-0.31-5.5c-0.16-0.79-0.31-3.77,0.16-5.03
	c0.47-1.26-0.79-5.65-0.79-5.65l-0.94-2.83l3.61,3.77c0,0-0.63-2.36-0.94-3.45c-0.31-1.1,1.41-1.1,1.41-1.1l-1.57-2.83
	c0,0-4.87-9.89-5.65-10.68c-0.79-0.79-2.51-4.87-4.08-5.65c-1.57-0.79-7.85-5.5-8.64-6.75c-0.79-1.26-0.47-3.14-2.36-4.24
	c-1.88-1.1-3.3-1.88-6.91-3.14c-3.61-1.26-8.17-2.51-11.46-2.98c-3.3-0.47-9.58,0-11.46-0.16c-1.88-0.16,1.1-4.4,8.32-3.3
	c0,0-6.12-2.51-14.76,2.51c0,0-7.54,0.78-8.01,0.78c-0.47,0,1.41-1.88,5.97-3.3c0,0-7.54,0-13.19,6.91c0,0-4.4,7.22-5.34,7.22
	c-0.94,0-0.31-3.77-0.31-3.77s-3.93,5.03-4.71,5.18c-0.78,0.16-4.4,3.14-5.65,4.24c-1.26,1.1-2.2,0.63-3.14,3.14
	c-0.94,2.51-2.04,0.47-3.77,2.83c-1.73,2.36-3.93,3.77-4.55,5.81c-0.63,2.04-0.94,1.88-1.26,4.55c-0.31,2.67-0.31,2.2-1.73,4.71
	c-1.41,2.51-2.98,5.18-2.2,6.6c0.78,1.41,1.57,3.3,2.04,5.34c0.47,2.04,0,0.94,1.26,3.93c1.26,2.98,2.04,7.54,2.2,9.89
	s0.79,3.3,0.79,3.3s-3.3,3.3-3.45,7.54c-0.16,4.24,1.57,7.38,1.41,11.31c-0.16,3.93-0.94,5.97,0.63,7.54
	c1.57,1.57,4.24,2.51,5.65,2.98c1.41,0.47,3.45,0.79,3.45,0.79s2.2,6.75,3.3,8.32c1.1,1.57,1.73,7.54,3.14,9.58
	c1.41,2.04,1.57,10.05,2.04,11.31c0.47,1.26,0.79,2.83,0.79,2.83s-1.73,2.04-2.04,2.51c-0.31,0.47-4.24,15.86-4.71,19.31
	c-0.47,3.45,0.79,3.45,0.79,3.45s-2.2,2.36-3.45,2.04c-1.26-0.31-16.96-12.88-22.14-14.13c-5.18-1.26-9.74-3.61-9.58-5.5
	c0.16-1.88-0.31-9.58-0.47-11.15c-0.16-1.57-8.95-19.94-10.36-23.55c-1.41-3.61-1.57-6.12-3.45-7.07c-1.88-0.94-5.65-2.2-8.17-1.41
	c-2.51,0.79-5.65,1.88-7.54,1.26c-1.88-0.63-8.79-6.12-13.82-7.38c-5.02-1.26-7.54-1.88-8.79-2.83
	c-1.26-0.94-20.1-28.58-24.02-33.13c-3.93-4.55-15.39-25.75-17.59-28.42c-2.2-2.67-8.79-12.88-10.21-13.5
	c-1.41-0.63-3.14-4.24-5.02-5.02c-1.88-0.78-9.58-14.92-10.52-20.1c-0.94-5.18-2.04-11.31-1.88-14.45c0.16-3.14-1.1-11.15-1.1-13.03
	s-0.47-4.87-0.47-4.87l-11.15-0.79c0,0-2.98-13.66-4.4-17.74c-1.41-4.08-5.02-7.38-6.91-8.95c-0.99-0.82-2.84-2.68-4.71-4.19
	c0.51-1.15,1-2.34,1.43-3.57c6.28-17.8,3.84-52.69-0.7-59.32l-17.1-5.23c0,0-0.35-31.41-4.54-38.38L636,759.58
	c1.7-22.57-1.48-44.05-17.3-50.99c-33.63-14.77-23.9,23.89-36.68,37.77c-0.85-0.75-1.95-1.21-3.16-1.21c-2.06,0-3.8,1.29-4.49,3.11
	c-1.26-0.34-4.14-0.2-9.62,4.26c-7.93,6.46-9.29,11.22-12.24,14.16c-2.95,2.95-4.08,7.36-6.12,7.14c-2.04-0.23-3.74,1.81-4.19,6.57
	c0,0,1.81-4.76,5.33-5.32c0,0-3.17,2.49-2.61,6c0.57,3.51,1.47,3.4-0.45,6.23c0,0,3.74-1.93,2.72-6.12
	c-1.02-4.19,2.38-5.78,4.42-7.02c2.04-1.25,5.55-2.04,6.34-3.17c0.79-1.13-4.65,6.57-5.1,11.78c-0.45,5.21-0.23,8.72-1.47,9.4
	c0,0,2.95-1.81,3.17-6.91c0.23-5.1,3.17-9.29,4.42-10.88c1.1-1.4,2.55-3.23,2.87-3.88c-0.37,1.28-2.15,8.87-1.74,12.83
	c0,0,0.57,6.23-0.68,7.14c0,0,2.38-1.59,2.38-5.66c0-4.08,1.13-11.1,2.15-12.8c1.02-1.7,1.7-1.93,4.08-4.42
	c2.38-2.49,3.4-3.85,4.65-5.89c0.94-1.54,3.43-5.09,4.69-7.17c0.47,0.15,0.96,0.26,1.48,0.26c2.66,0,4.82-2.16,4.82-4.82
	c0-0.66-0.13-1.29-0.37-1.86c0.61-0.51,1.22-1.06,1.85-1.68c4.58-4.58,8.85-37.21,17.69-38.13c8.85-0.92,21.05,3.05,23.49,8.54
	c2.44,5.49,9.15,10.98,7.93,30.2c-0.32,5.04-0.85,9.96-1.46,14.55l-54.27,33.74l5.93,107.82l40.13-21.29c0,0,20.24,1.4,22.68,9.77
	c0,0,5.19-6.11,7.58-10.04c1.27,0.2,2.54,0.24,3.59-0.08c3.49-1.05,5.58,3.14,6.63,5.58c1.05,2.44,0.35,12.21,0.35,12.21
	s5.23,18.15,4.54,18.49c-0.7,0.35,3.14,21.98,2.79,23.38c-0.35,1.4,1.05,9.42,1.05,9.42s-6.98,0-11.86,0.35
	c-4.89,0.35-9.77,3.84-9.77,3.84s2.79,3.14,7.68,11.86c4.89,8.72,9.42,10.82,8.72,18.15c-0.7,7.33-0.35,9.07-0.35,9.07
	s10.47,12.91,15.35,18.15c4.89,5.23,11.52,9.77,13.96,11.51c2.44,1.74,5.23,23.38,14.31,42.92c9.07,19.54,17.1,33.15,21.29,37.69
	c4.19,4.54,6.98,8.03,14.31,15.35c0.69,0.69,1.45,1.5,2.24,2.36h305.79C1045.73,1111.21,1031.36,1097.76,1016.54,1094.81z"/>
<path class="st0" d="M1528.54,1120.06c-0.61-5.65-3.23-15.33-1.82-19.97c1.41-4.64,8.68-15.94,9.08-18.16
	c0.4-2.22,2.62-16.14-0.4-19.77c-3.03-3.63,6.66-4.84,6.25-6.46c-0.4-1.61-5.25-6.66-4.84-10.29c0.4-3.63,1.82-9.68,2.62-13.11
	c0.81-3.43,2.62-10.09,2.22-12.91c-0.4-2.82,1.01-4.24,2.22-7.06c1.21-2.82,1.61-3.43,2.82-7.67c1.21-4.24,1.61-5.65,3.63-7.67
	c2.02-2.02,9.48-14.93,10.9-19.37c1.41-4.44,1.82-12.31,4.24-15.54c2.42-3.23,10.29-11.1,10.29-16.75c0-5.65-1.82-14.53-1.21-15.74
	c0.61-1.21,3.23-11.1,4.44-15.33c1.21-4.24,4.44-14.12,3.83-17.75c-0.61-3.63-2.42-8.68-1.41-11.5c1.01-2.82,3.83-10.29,5.45-10.69
	c1.61-0.4,7.67-4.84,9.08-7.87c1.41-3.03,4.64-10.29,5.04-14.73c0.4-4.44,3.23-12.91,5.04-14.53c1.82-1.61,4.64-2.22,6.66-5.04
	c2.02-2.82,9.48-21.39,9.48-27.84c0-6.46,3.03-15.74,3.43-17.15c0.4-1.41,14.93-34.3,15.54-36.72c0.61-2.42,2.02-5.25,4.44-6.86
	s13.72-9.48,15.54-11.9c1.82-2.42,3.23-5.04,2.62-6.25c-0.61-1.21-0.4-6.05-1.41-7.47c-1.01-1.41-0.61-5.85-1.41-6.66
	c-0.81-0.81-0.2-3.43-2.02-3.63c-1.82-0.2-1.82-1.41-2.22-2.02c-0.4-0.6-3.43-1.82-4.24-2.82c-0.81-1.01,0.4-2.82,0.4-4.44
	c0-1.61-2.42-7.46-1.01-9.08c1.41-1.61,5.04-4.84,5.04-4.84s11.54-33.43,17.92-52.76c8.97-8.2,29.2-32.6,32.65-38.63
	c3.76-6.59,2.59-16.93,1.41-21.17c-1.1-3.98-5.94-13.97-7.7-16.92c3.2-0.77,5.58-3.63,5.58-7.07c0-2.76-1.55-5.13-3.8-6.37
	c-0.12-0.14-0.19-0.22-0.19-0.22s0-3.53,0.47-6.59c0.47-3.06,0-4.23-1.65-15.05c-1.23-8.05,2.24-14.92,4.09-17.92l-4.32,6.39
	c-0.24-1.41-1.88-4.23-3.53-8.94c-1.65-4.7-5.88-11.29-11.99-13.41c-6.11-2.12-8.94-7.53-8.94-7.53c-2.59,3.06-0.24,7.29-0.24,7.29
	c-4.47-3.76-9.17-0.47-9.17-0.47c3.76-0.47,7.53,6.35,7.53,6.35c-5.64-6.35-8.7-2.12-8.7-2.12c3.76-0.94,6.59,5.64,6.59,5.64
	c-3.53,0.47-6.59-3.06-6.59-3.06c-0.47,3.29,6.35,5.88,6.35,5.88c-7.29,0.94-8.47-2.82-8.47-2.82c-1.18,4,5.88,4.7,5.88,4.7
	c6.78-0.68,12.57,6.45,15.28,10.49c-2.74-2.57-7.52-2.73-7.52-2.73c7.53,0.47,10.35,14.35,10.35,14.35
	c-3.29-6.35-7.29-7.29-7.29-7.29c3.06,0.71,7.29,10.35,8.94,12.94c1.65,2.59,3.53,9.64,4.23,13.17c0.11,0.56,0.31,1.21,0.55,1.89
	c-1.48,1.33-2.43,3.25-2.43,5.4c0,3.84,2.98,6.96,6.76,7.24c0.35,1.61,0.99,3.33,2.18,4.52c2.82,2.82,5.64,10.82,6.35,17.64
	c0.71,6.82-2.82,18.11-12.23,29.4c-6.1,7.33-13.87,14.93-18.59,19.38c0.96-2.98,1.68-5.3,2.04-6.6
	c2.42-8.88,21.59-60.73,21.59-60.73s-22.8,30.26-26.03,31.27c-3.23,1.01-12.31-2.82-14.93-3.03c-2.62-0.2-26.63-9.08-27.64-9.08
	c-1.01,0-24.21,30.67-26.63,36.11c-2.42,5.45-11.7,31.27-11.7,31.27s-8.68,8.68-7.87,11.9c0.81,3.23,8.27,9.08,8.27,9.08
	s11.1,1.61,16.75,3.63c5.65,2.02,13.11,7.87,18.56,8.07c5.45,0.2,15.13,4.84,15.13,4.84l-5.25,16.14c0,0-1.41-3.03-3.63-1.21
	c-2.22,1.82-3.63,6.86-4.64,7.26c-1.01,0.4-8.27,5.65-9.89,6.05c-1.61,0.4-5.25,1.61-6.66,5.65c-1.41,4.04-2.02,13.11-2.22,17.15
	c-0.2,4.04,0.2,5.85-1.82,10.49c-2.02,4.64-16.14,36.72-16.14,36.72s-118.03,32.08-129.93,38.33c-11.9,6.25-31.88,23.81-32.08,34.1
	c-0.2,10.29,3.43,24.01,4.44,27.04c1.01,3.03,4.44,12.31,3.83,14.73s-2.02,3.83-2.22,5.85c-0.2,2.02,0.2-9.48-4.64-18.96
	c-4.84-9.48-7.06-15.94-8.68-15.13c-1.61,0.81-3.63-3.43-4.24-5.25c-0.61-1.82-2.02-4.84-5.45-4.24c-3.43,0.61-5.25,0.81-7.46-0.61
	c-2.22-1.41-3.03-2.82-5.85-2.02c-2.82,0.81-4.04,1.41-6.66,1.82c-2.62,0.4-13.52-0.2-16.54,1.21c-3.03,1.41-4.44,2.42-6.86,3.43
	c-2.42,1.01-7.44,3.08-7.44,3.08s-6.9,0.63-10.03,2.51c-3.14,1.88-11.92,9.41-15.05,12.54c-3.14,3.14-5.02,1.88-8.15,5.64
	c-3.14,3.76-4.39,9.41-5.02,13.17c-0.63,3.76,1.25,6.9-1.25,12.54c-2.51,5.64-3.76-1.25-2.51,5.64c1.25,6.9,0,8.78-1.88,13.17
	c-1.88,4.39,0.63,4.39,1.88,10.03c1.25,5.64,0.63,10.66,3.76,13.17c3.14,2.51,6.9,6.9,6.9,6.9s-3.76,3.76,0.63,11.29
	c4.39,7.53,7.53,13.8,10.66,15.68c3.14,1.88,17.56,5.02,17.56,5.02s-3.14,2.51-13.17,4.39c-10.03,1.88-38.26,3.76-42.02,5.64
	c-3.76,1.88-22.58,0-25.09,7.53c-2.51,7.53-9.41,12.54-6.9,20.7c0,0-11.29-0.63-20.07-4.39c-5.12-2.19-12.58-6.51-18.54-9.49
	c-4.58-15.06-17.27-24.63-21.84-34.19c-5.62-11.76-8.69-21.47-7.67-24.03c1.02-2.56,10.74-8.69,9.2-15.34
	c-0.16-0.7-0.39-2.73-0.63-5.09c0.16-0.09,0.33-0.21,0.51-0.37c4-3.76,3.85-12.18,3.06-13.64c-1.01-1.88-3.28-2.43-4.87-2.57
	c-0.49-2-1.42-4.05-3.18-5.42c-2.06-1.6-23.01-3.07-26.58,4.6c0,0-4.09,14.31-3.07,20.45c1.02,6.13-2.04,11.25,0.51,17.38
	c2.56,6.14,7.16,45.5,10.74,54.19c2.34,5.69,4.26,16.18,7.73,24.05c-3.29,4.27-5.41,8.05-5.72,11.83
	c-0.61,7.46-5.45,27.24-6.25,30.26c-0.81,3.03-2.82,5.65-1.41,8.27s6.25,10.09,6.46,12.11c0.2,2.02-5.85,3.03-4.04,5.25
	c1.82,2.22,9.68,11.5,12.71,15.13c0.66,0.79,1.58,1.81,2.62,2.95h324.6C1528.65,1121.18,1528.59,1120.51,1528.54,1120.06z"/>
<path class="st0" d="M265.59,468.3c-1.22-4.05-4.86-2.84-4.86-2.84s-33.85,9.73-66.02,18.87c4.44-12.42,10.85-23.14,15.11-29.52
	c0.91,0.5,1.95,0.81,3.06,0.81c3.55,0,6.43-2.88,6.43-6.43c0-0.94-0.21-1.82-0.57-2.62c2.12-1.65,4.7-3.8,7.16-6.16
	c4.39-4.23-0.16-9.25,2.2-12.55c2.35-3.29,5.02-5.33,7.68-9.25c2.67-3.92,6.12-8.16,9.25-13.64c3.14-5.49,1.57-14.27,1.57-14.27
	c-2.04,9.72-6.74,13.49-6.74,13.49c2.67-2.98,5.18-14.27,5.18-14.27l-2.35-2.35c-4.08,2.67-12.39,22.27-11.61,19.6
	c0.78-2.67,3.76-10.51,5.49-12.7c1.73-2.2,4.55-8.31,4.55-8.31l-4.08-3.14l-2.98,4.71c0,0,1.73-4.86,1.1-5.96
	c-0.63-1.1-2.35-1.73-2.35-1.73s0.78-1.1-1.25,1.41c-2.04,2.51-3.61,13.02-3.61,13.02c-1.73-5.8,0.63-15.06,0.63-15.06
	c-2.2,4.86-3.29,9.57-2.98,15.06c0.31,5.49-4.71,14.43-4.71,14.43c-1.25,5.18-3.76,11.45-4.71,14.27c-0.94,2.82-0.47,5.49-0.31,7.53
	c0.16,2.04-0.16,3.29-1.88,6.12c-1.05,1.72-1.75,4.3-2.14,6.06c-3.05,0.5-5.39,3.13-5.39,6.33c0,2.26,1.17,4.24,2.94,5.39
	c-8.7,11.25-14,21.49-17.13,30.46c-23.04,6.54-44.74,12.65-51.92,14.48c-17.43,4.46-25.94,8.92-25.94,8.92
	c5.68,47.84,26.35,130.13,26.35,130.13c4.05-3.65,40.94-12.57,42.97-12.57c2.03,0,10.54,2.03,12.16,1.62
	c1.62-0.41,3.24,2.03,24.32-2.43c21.08-4.46,29.59-18.65,29.59-18.65c5.68-1.62,42.57-12.97,42.57-12.97S266.81,472.36,265.59,468.3
	z"/>
<path class="st0" d="M915.59,556.86c-4.82,1.14-5.33-2.53-5.33-2.53l7.98-10.76c0,0,15.69-1.13,21.78,0.99s5.06,0.21,5.06,0.21
	s-0.69-3.08-4.64-4.89c-3.95-1.8-6.44-6.38-9.06-9.4c-2.63-3.02-9.31-10.75-11.59-9.5c-2.29,1.24-19.02,5.9-23.25,7.22
	c-4.23,1.31-9.66-4.13-16.17-7.01c-6.51-2.88-34.17-16.49-36.73-17.56c-2.56-1.08-11.46-5.62-14.37-5.52c0,0-4.84,28.37-9.82,57.53
	c-8.83-13.83-16.01-32.39-10.58-52.35c4.94-18.15,5.71-28.94,4.54-36.09c0.14-0.07,0.28-0.13,0.42-0.2
	c6.32-3.44,8.65-11.34,5.21-17.66c-0.4-0.73-0.86-1.4-1.36-2.02c0.38-1.96,0.72-4.09,0.97-6.37c0.87-8.23-0.76-8.68-3.09-14.42
	c-2.33-5.74-2.85-8.14-5-11.74c-2.16-3.6-3.33-7.58-4.17-11.3c-0.84-3.72-2.71-6.43-4-9.9c-1.29-3.47-1.18-8-1.36-10.14
	c-0.17-2.14-0.85-5.2-1.33-7.18c-0.48-1.98-3.49-4.96-3.49-4.96s0.48,1.98,1.85,7.04c1.37,5.07-0.33,4.5-0.95,6.63
	c-0.62,2.13-0.48,4.58,0.53,7.17c1.01,2.58,2.8,19.35,2.24,15.78c-0.56-3.57-2.14-7.93-3.24-11.06c-1.11-3.13-1.25-8.86-1.14-12.65
	c0.12-3.79-2.26-10.7-3.52-11.2c-1.27-0.5-6.74,2.18-6.74,2.18s0.27,9.24-0.04,8.67c-0.31-0.58-1.55-7.95-1.55-7.95l-2.27,0.93
	c0,0-2.57,1.1-2.22,2.85c0.36,1.74,8.65,16.62,8.65,16.62l-0.91,1.24c-0.4-0.38-2.41-1.52-4.03-7.05
	c-1.62-5.53-6.89-10.12-6.89-10.12s1.68,2.36,3.67,7.1c1.98,4.74,0.43,5.88,1.78,9.47c0.98,2.58,4.34,6.72,6.15,8.84
	c-1.18-0.78-3.19-1.46-6.88-4.71c-5.33-4.7-4.96-10.57-4.96-10.57c-0.95,3.35-3.56,4.02,3.23,9.57
	c6.79,5.55,20.84,21.91,19.34,38.82c-0.27,3.08-0.36,5.7-0.34,7.93c-3.61,3.99-4.52,9.97-1.8,14.96c2.82,5.18,8.65,7.68,14.15,6.51
	c0.96,6.61,0.92,14.69-1.64,23.74c-6.37,22.58-7.34,38.89,10.52,65.13c-3.41,19.99-6.85,40.12-8.8,51.52
	c-4.84,28.33,1.11,32,6.68,35.89c5.57,3.88,52.89,35.45,67.22,34.56l5.86-38.26c0,0,11.92-3.52,18.64-11.13
	c6.73-7.61,14.18-16.61,17.34-20.8c3.16-4.19,10.61-13.18,13.39-17.17c2.77-3.98,7.68-30.37,8.73-33.9
	c1.04-3.53,2.74-4.95,2.74-4.95S920.41,555.73,915.59,556.86z"/>
<path class="st0" d="M546.14,343.65c-2.31-26.98-1.54-30.83-1.54-30.83s-13.49-5.4-19.66-4.63c0,0-9.25-36.23-10.41-40.85
	c-1.16-4.63-3.08-7.32-3.85-2.31c0,0-34.34,16.44-63.5,31.19c-21.17-23.29-12.42-37.59-6.36-43.48c0.73,0.98,1.89,1.62,3.2,1.62
	c2.22,0,4.01-1.8,4.01-4.01c0-0.15-0.03-0.29-0.04-0.44c2.07-1.97,4.85-4.49,7.58-5.59c4.35-1.75,14.23-17.2,12.58-16.33
	c-1.65,0.87-3.29,3.99-3.41,4.49c-0.12,0.5-12.23,9.47-12.23,9.47s1.65-1.5,3.06-3.12c1.41-1.62,2.35-3.37,2.94-4.99
	c0.59-1.62,3.88-3.99,5.88-5.11c2-1.12,1.88-4.86,1.88-4.86c-0.59,0.25-3.29,2.12-4.47,3.24c-1.18,1.12-2.82,2.87-3.53,3.61
	c-0.71,0.75-3.29,2.12-3.29,2.12c1.53-1.37,1.29-1.62,4.47-5.36c3.18-3.74,5.06-3.99,4.94-4.36c-0.12-0.37-2.23-3.49-2.23-3.49
	s-2.82,0.12-3.88,0.75c-1.06,0.62-1.06,3.12-2.12,4.74c-1.06,1.62-4.82,6.48-4.82,6.48c0.12-0.87-0.94-3.37,0.71-4.11
	c1.65-0.75,3.88-7.11,3.88-7.11s-4.7,5.48-5.88,7.35c-1.18,1.87-1.53,5.11-2,7.98c-0.47,2.87-2,5.61-3.88,7.73
	c-0.8,0.9-1.24,2.08-1.51,3.15c-1.54,0.56-2.64,2.02-2.64,3.76c0,0.4,0.08,0.77,0.18,1.13c-7.24,4.41-8.04,13.91-8.69,20.11
	c-0.41,3.91,6.25,14.72,13.89,25.54c-20,10.14-37.14,19.29-38.39,21.47c-3.08,5.4-0.77,6.94-0.77,6.94l4.24,16.57
	c0,0,26.21,100.6,28.14,106.76c0,0,0.77,3.08,6.55-1.16c5.78-4.24,57.81-28.14,66.29-33.92c8.48-5.78,33.92-16.96,33.92-16.96
	l-3.08-13.49C542.29,383.34,548.45,370.62,546.14,343.65z"/>
<path class="st0" d="M1301.08,304.14c2.33-4.84,1.74-7.36,1.74-12.01s2.13-10.08,1.55-15.11c-0.58-5.04,2.13-20.93,2.13-20.93
	c-1.94,1.94-4.07,6.59-5.04,9.49c-0.97,2.91-2.52,8.33-1.94,12.79c0.58,4.46-2.52,18.41-2.52,18.41c1.74-6.78,0-11.63,0.19-15.89
	c0.19-4.26,0.97-13.76,2.52-17.44c1.55-3.68,3.49-7.17,3.49-7.17l-5.23-2.91c0,0-4.07,0.19-5.04,0.77
	c-0.97,0.58-1.74,5.23-1.94,7.75c-0.19,2.52-3.68,13.18-3.68,13.18s0.78-4.84,1.74-9.11c0.97-4.26,2.13-11.82,2.13-11.82
	s-3.49-1.16-3.29-0.58c0.19,0.58-3.49,7.94-3.88,11.63c-0.39,3.68-5.04,7.75-6.98,14.34c-1.94,6.59,0.58,24.22,0.58,24.22
	c-2.52-3.49-4.46-17.83-4.46-17.83c0.19,2.71-0.39,12.59,2.52,18.21s2.13,12.4,0.58,18.41c-0.95,3.7-0.95,9.31-0.81,13.07
	c-3.18,0.8-5.55,3.65-5.55,7.08c0,2.48,1.24,4.66,3.12,5.98c-0.03,0.06-0.04,0.11-0.07,0.17c-4.13,8.78-21.92,27.64-40.77,41.22
	c-13.53,9.75-23.52,26.18-28.75,35.75c-3.22-15.04-14.15-69.16-15.42-73.25l-28.48,9.01l4.07,4.36l3.49,20.93
	c0,0-31.1,3.49-34.01,4.36c-2.91,0.87-9.01,4.65-11.34,5.52c-2.33,0.87-19.76,12.5-17.15,13.37c2.62,0.87,7.56,3.49,8.14,4.36
	c0.58,0.87,0.29,10.46,2.33,15.11c2.03,4.65,3.2,14.53,4.36,18.31s4.65,10.75,5.81,12.79c1.16,2.03,5.52,9.59,6.1,12.5
	s3.78,11.92,3.49,15.4s-0.87,15.99,1.45,18.02c2.33,2.03,6.1,0.58,6.1,0.58l2.91,4.36c0,0,12.21-2.62,16.57-3.2
	s29.06-5.81,29.06-5.81s2.33,13.08,2.33,15.7c0,2.62-0.29,7.56-0.29,7.56l28.19-0.58c0,0,1.45-9.88,0-15.11
	c-1.38-4.98-14.6-70.73-16.63-79.57c2.2-4.96,5.81-12.79,13.14-22.45c11.04-14.53,25.58-24.41,34.3-30.23
	c8.03-5.35,21.48-25,23.55-28.07c0.56,0.14,1.13,0.23,1.73,0.23c3.88,0,7.02-3.02,7.28-6.83c3.12-3.18,7.12-7.83,7.26-9.22
	c0.19-1.94,1.55-10.66,3.29-15.89c1.74-5.23,20.54-24.61,20.54-24.61C1308.25,296.77,1298.76,308.98,1301.08,304.14z"/>
<path class="st0" d="M1397.75,531.11l-11.42-26.28l-90.98,47.77c0,0,17.76,40.69,27.44,62.96c-5.82,9.7-9.3,20.91-6.38,32.55
	c6.33,25.27,12.44,49.47,14.27,62.26c-1.5,0.37-2.91,1.14-4.08,2.31c-2.96,2.98-3.33,7.54-1.13,10.92
	c-1.18,6.05-1.71,16.9,6.29,25.12c11.45,11.76,33.94,21.21,43.49,33.74c9.55,12.53,20.04,21.06,23.67,22.76
	c0,0-14.32-16.89-18.53-21.83c0,0,18.33,19.35,25.17,15.53l4.17-6.48c0,0-9.91-6.44-16.78-10.98c0,0,13.53,5.86,18.48,7.36
	l3.97-7.81c0,0-1.56-5.48-10.24-9.41c-1.41-0.64-3.02-1.24-4.83-1.77c-12.95-3.77-25.52-6.39-28.95-9.42c0,0,28.94,4.86,36.94,9.4
	c0,0-16.59-11.94-28.4-14.18c-11.8-2.25-19.44-8.69-20.96-10.21c-1.53-1.52-5.36-10.26-8.99-13.86c-2.26-2.25-5.86-6.41-8.94-9.74
	c1.11-3.1,0.43-6.69-2.06-9.16c-1.71-1.7-3.95-2.55-6.18-2.54c-0.18-1.47-0.48-2.92-0.98-4.19c-1.92-4.94-13.9-64.27-12.03-73.79
	c0.75-3.82,2.65-7.92,5.03-11.91c1.06,2.43,1.96,4.51,2.64,6.09c6.46,14.95,19.39,44.44,19.82,45.29
	c0.43,0.85,17.09-6.9,25.42-10.99c8.33-4.09,66-31.65,66-31.65l-9.27-22.43c0,0,6.59-14.35,4.19-28.68
	c-2.4-14.33-17.25-43.16-22.61-46.35L1397.75,531.11z"/>
<path class="st0" d="M979.24,472.17c0.52-7.49-4.48-10.93-7.06-12.65c-2.58-1.72-15.75-11.7-16.78-13.51
	c-0.76-1.33-7.88-4.47-11.71-6.93c0.6-1.36,0.94-2.86,0.94-4.44c0-4.96-3.29-9.16-7.8-10.53c0.02-1.07-0.03-2.2-0.17-3.4
	c-1.6-13.91-13.31-32.55-26.11-41.55c-13.5-9.5-11.54-17.48-10.67-19.62c3.6,1.98,7.27,3.94,11.01,5.86
	c60.75,31.14,92.92,39.82,92.92,39.82l-47.99-23.48l-2.55-16.34l25.02-46.46l-25.02-16.34l-10.21,8.68l0.51-13.27
	c0,0-25.02-22.46-51.05-17.87c0,0-25.53,39.82-23.99,55.14c0,0-40.93-25.63-56.52-37.65c12.33,10.9,43.53,36.93,84.17,59.84
	c-1.12,2.47-3.62,11.53,12.84,23.11c12.95,9.12,23.31,29.85,24.61,41.12c0.08,0.7,0.07,1.33,0.03,1.94c-0.01,0-0.02,0-0.02,0
	c-6.09,0-11.02,4.93-11.02,11.01c0,3.75,1.88,7.05,4.73,9.04c0.58,2.56,1.74,5.43,3.96,8.27c6.45,8.26,17.81,18.33,24.09,25.56
	c6.28,7.23,2.07,12.65,0.17,16.44c0,0,2.84-2.32,3.79-6.63c0.95-4.3-0.52-10.84-0.77-10.84c0,0,5.16,5.77,3.44,14.11
	c-1.72,8.35,0.09,5.42,2.07,8.95c0,0-2.32-4.47-1.03-7.66c1.29-3.18,1.55-10.41,0.17-14.11c-1.38-3.7-3.27-9.04-3.36-9.29
	c-0.09-0.26,12.74,6.71,13.94,15.14c1.2,8.43,3.79,9.38,5.16,10.41c0,0-5.16-11.96-5.08-17.3c0.09-5.34-1.03-8.09-4.22-11.27
	c0,0,7.23,1.29,8.09,8.35c0.81,6.68,3.4,6.5,4.4,6.82C981.49,480.32,978.79,478.71,979.24,472.17z"/>
<g>
	<path class="st0" d="M2972.85,302.04c0.88-2.93,3.52-2.05,3.52-2.05s24.48,7.03,47.74,13.64c-3.21-8.98-7.84-16.73-10.92-21.35
		c-0.66,0.36-1.41,0.58-2.21,0.58c-2.57,0-4.65-2.08-4.65-4.65c0-0.68,0.15-1.31,0.41-1.89c-1.53-1.19-3.4-2.75-5.17-4.46
		c-3.18-3.06,0.11-6.69-1.59-9.07c-1.7-2.38-3.63-3.86-5.56-6.69c-1.93-2.84-4.42-5.9-6.69-9.87c-2.27-3.97-1.13-10.32-1.13-10.32
		c1.47,7.03,4.88,9.75,4.88,9.75c-1.93-2.15-3.74-10.32-3.74-10.32l1.7-1.7c2.95,1.93,8.96,16.1,8.39,14.18
		c-0.57-1.93-2.72-7.6-3.97-9.19c-1.25-1.59-3.29-6.01-3.29-6.01l2.95-2.27l2.15,3.4c0,0-1.25-3.52-0.79-4.31
		c0.45-0.79,1.7-1.25,1.7-1.25s-0.57-0.79,0.91,1.02c1.47,1.81,2.61,9.41,2.61,9.41c1.25-4.2-0.45-10.89-0.45-10.89
		c1.59,3.52,2.38,6.92,2.15,10.89c-0.23,3.97,3.4,10.43,3.4,10.43c0.91,3.74,2.72,8.28,3.4,10.32c0.68,2.04,0.34,3.97,0.23,5.44
		s0.11,2.38,1.36,4.42c0.76,1.24,1.26,3.11,1.55,4.39c2.21,0.36,3.9,2.26,3.9,4.57c0,1.63-0.85,3.07-2.12,3.9
		c6.29,8.13,10.12,15.54,12.39,22.02c16.66,4.73,32.35,9.14,37.54,10.47c12.6,3.22,18.76,6.45,18.76,6.45
		c-4.1,34.59-19.05,94.09-19.05,94.09c-2.93-2.64-29.61-9.09-31.07-9.09c-1.47,0-7.62,1.47-8.79,1.17s-2.34,1.47-17.59-1.76
		c-15.24-3.22-21.4-13.48-21.4-13.48c-4.1-1.17-30.78-9.38-30.78-9.38S2971.97,304.98,2972.85,302.04z"/>
	<path class="st0" d="M2605.06,495.61c3.43-0.94,2.5-3.43,2.5-3.43l-8.74-4.06c0,0-10.3,4.68-13.42,8.12
		c-3.12,3.43-3.12,1.87-3.12,1.87s-0.62-2.19,1.25-4.68c1.87-2.5,1.87-6.24,2.5-9.05c0.62-2.81,2.19-9.99,4.06-9.99
		s14.05-2.81,17.17-3.43c3.12-0.62,4.68-5.93,7.8-9.99c3.12-4.06,15.92-22.16,17.17-23.72c1.25-1.56,5.31-7.49,7.18-8.43
		c0,0,12.82,16.26,25.98,32.97c0.82-11.78-1.02-25.97-11.31-36.72c-9.36-9.77-13.56-16.33-15.27-21.24c-0.11,0-0.22,0.02-0.33,0.02
		c-5.17,0-9.36-4.19-9.36-9.36c0-0.6,0.06-1.18,0.17-1.74c-0.91-1.1-1.86-2.34-2.8-3.69c-3.38-4.9-2.5-5.75-3-10.17
		c-0.5-4.43-1-6.12-0.88-9.14c0.13-3.01-0.5-5.93-1.25-8.57c-0.75-2.64-0.5-4.99-0.88-7.63c-0.38-2.64-2-5.46-2.63-6.88
		c-0.63-1.41-1.25-3.58-1.63-4.99c-0.38-1.41,0.5-4.33,0.5-4.33s0.38,1.41,1.25,5.09c0.88,3.67,1.75,2.73,2.88,3.86
		c1.13,1.13,1.88,2.73,2.13,4.71c0.25,1.98,4.88,13.19,4.01,10.74c-0.88-2.45-1.38-5.75-1.75-8.1c-0.38-2.36-2.25-6.03-3.63-8.38
		s-2.25-7.54-1.63-8.29c0.63-0.75,5.01-0.94,5.01-0.94s3,5.93,3,5.46c0-0.47-1.75-5.56-1.75-5.56l1.75-0.19c0,0,2-0.19,2.38,1.04
		c0.38,1.22,0.25,13.47,0.25,13.47l1,0.47c0.13-0.38,1-1.79,0.13-5.84c-0.88-4.05,0.88-8.76,0.88-8.76s-0.25,2.07,0.13,5.75
		c0.38,3.67,1.75,3.86,2.13,6.59c0.27,1.97-0.43,5.74-0.85,7.7c0.48-0.9,1.51-2.02,2.73-5.34c1.75-4.8-0.5-8.38-0.5-8.38
		c1.75,1.79,3.63,1.32,1.25,7.16c-2.38,5.84-5.63,21.01,1.13,31.18c1.23,1.85,2.19,3.47,2.94,4.89c3.65,1.28,6.28,4.74,6.28,8.83
		c0,4.25-2.83,7.83-6.7,8.97c1.67,4.5,4.47,9.6,9.2,14.44c11.79,12.08,18.01,22.05,15.75,44.77c9.03,11.46,18.12,22.99,23.27,29.53
		c12.8,16.23,10.3,20.6,8.12,24.97c-2.19,4.37-21.23,40.58-30.59,44.95l-16.86-22.16c0,0-8.74,1.87-15.61-0.62
		c-6.87-2.5-14.67-5.62-18.1-7.18c-3.43-1.56-11.24-4.68-14.36-6.24s-15.3-16.54-17.17-18.42c-1.87-1.87-3.43-2.19-3.43-2.19
		S2601.62,496.55,2605.06,495.61z"/>
	<path class="st0" d="M2537.62,196.52c1.81-21.07,1.2-24.07,1.2-24.07s10.53-4.21,15.35-3.61c0,0,7.22-28.29,8.13-31.9
		c0.9-3.61,2.41-5.72,3.01-1.81c0,0,26.81,12.84,49.58,24.36c16.53-18.19,9.7-29.35,4.97-33.95c-0.57,0.76-1.47,1.26-2.5,1.26
		c-1.73,0-3.13-1.4-3.13-3.13c0-0.12,0.02-0.23,0.03-0.34c-1.61-1.54-3.78-3.51-5.92-4.36c-3.4-1.36-11.11-13.43-9.83-12.75
		c1.29,0.68,2.57,3.11,2.66,3.5c0.09,0.39,9.55,7.4,9.55,7.4s-1.29-1.17-2.39-2.43c-1.1-1.27-1.84-2.63-2.3-3.89
		c-0.46-1.27-3.03-3.11-4.59-3.99c-1.56-0.88-1.47-3.8-1.47-3.8c0.46,0.19,2.57,1.65,3.49,2.53c0.92,0.88,2.2,2.24,2.75,2.82
		c0.55,0.58,2.57,1.65,2.57,1.65c-1.19-1.07-1.01-1.27-3.49-4.19c-2.48-2.92-3.95-3.11-3.86-3.41c0.09-0.29,1.74-2.73,1.74-2.73
		s2.2,0.1,3.03,0.58c0.83,0.49,0.83,2.43,1.65,3.7c0.83,1.27,3.76,5.06,3.76,5.06c-0.09-0.68,0.73-2.63-0.55-3.21
		c-1.29-0.58-3.03-5.55-3.03-5.55s3.67,4.28,4.59,5.74c0.92,1.46,1.19,3.99,1.56,6.23c0.37,2.24,1.56,4.38,3.03,6.03
		c0.62,0.7,0.97,1.62,1.18,2.46c1.2,0.44,2.06,1.58,2.06,2.93c0,0.31-0.06,0.6-0.14,0.88c5.65,3.45,6.27,10.86,6.78,15.7
		c0.32,3.05-4.88,11.49-10.85,19.94c15.62,7.92,29,15.07,29.97,16.77c2.41,4.21,0.6,5.42,0.6,5.42l-3.31,12.94
		c0,0-20.46,78.54-21.97,83.36c0,0-0.6,2.41-5.12-0.9c-4.51-3.31-45.14-21.97-51.76-26.48c-6.62-4.51-26.48-13.24-26.48-13.24
		l2.41-10.53C2540.63,227.51,2535.81,217.58,2537.62,196.52z"/>
	<path class="st0" d="M2142.36,242.76c-1.45-3.01-1.08-4.58-1.08-7.47c0-2.89-1.33-6.27-0.96-9.4c0.36-3.13-1.33-13.01-1.33-13.01
		c1.2,1.21,2.53,4.1,3.13,5.9c0.6,1.81,1.57,5.18,1.21,7.95c-0.36,2.77,1.57,11.45,1.57,11.45c-1.08-4.22,0-7.23-0.12-9.88
		c-0.12-2.65-0.6-8.56-1.57-10.85c-0.96-2.29-2.17-4.46-2.17-4.46l3.25-1.81c0,0,2.53,0.12,3.13,0.48c0.6,0.36,1.08,3.25,1.21,4.82
		c0.12,1.57,2.29,8.19,2.29,8.19s-0.48-3.01-1.08-5.66c-0.6-2.65-1.33-7.35-1.33-7.35s2.17-0.72,2.05-0.36
		c-0.12,0.36,2.17,4.94,2.41,7.23c0.24,2.29,3.13,4.82,4.34,8.92c1.21,4.1-0.36,15.06-0.36,15.06c1.57-2.17,2.77-11.09,2.77-11.09
		c-0.12,1.69,0.24,7.83-1.57,11.33c-1.81,3.49-1.33,7.71-0.36,11.45c0.59,2.3,0.59,5.79,0.5,8.13c1.98,0.5,3.45,2.27,3.45,4.41
		c0,1.54-0.77,2.9-1.94,3.72c0.02,0.04,0.03,0.07,0.04,0.1c2.57,5.46,13.63,17.19,25.35,25.64c8.42,6.06,14.63,16.28,17.88,22.23
		c2-9.35,8.8-43.01,9.59-45.55l17.71,5.6l-2.53,2.71l-2.17,13.01c0,0,19.34,2.17,21.15,2.71c1.81,0.54,5.6,2.89,7.05,3.43
		c1.45,0.54,12.29,7.77,10.66,8.31c-1.63,0.54-4.7,2.17-5.06,2.71c-0.36,0.54-0.18,6.51-1.45,9.4s-1.99,9.04-2.71,11.39
		c-0.72,2.35-2.89,6.69-3.62,7.95c-0.72,1.27-3.43,5.96-3.8,7.77c-0.36,1.81-2.35,7.41-2.17,9.58c0.18,2.17,0.54,9.94-0.9,11.21
		c-1.45,1.27-3.8,0.36-3.8,0.36l-1.81,2.71c0,0-7.59-1.63-10.3-1.99c-2.71-0.36-18.08-3.62-18.08-3.62s-1.45,8.13-1.45,9.76
		s0.18,4.7,0.18,4.7l-17.53-0.36c0,0-0.9-6.15,0-9.4c0.86-3.1,9.08-43.98,10.34-49.49c-1.37-3.08-3.61-7.96-8.17-13.96
		c-6.87-9.04-15.91-15.18-21.33-18.8c-4.99-3.33-13.36-15.55-14.65-17.45c-0.35,0.08-0.7,0.14-1.08,0.14
		c-2.41,0-4.36-1.88-4.52-4.25c-1.94-1.98-4.43-4.87-4.52-5.73c-0.12-1.21-0.96-6.63-2.05-9.88c-1.08-3.25-12.77-15.3-12.77-15.3
		C2137.9,238.18,2143.8,245.77,2142.36,242.76z"/>
	<path class="st0" d="M2035.8,455.83l-9.48-23.84l87.79-27.64c0,0,14.64,36.97,22.67,57.18c9.84,2.43,19.16,7.29,24.71,16.5
		c12.06,19.97,23.57,39.14,30.54,48.37c1.18-0.71,2.56-1.13,4.04-1.13c3.76,0,6.89,2.65,7.65,6.18c4.59,3.07,11.82,9.58,11.99,19.85
		c0.24,14.7-7.95,34.95-6.02,48.92c1.93,13.98,0.72,26.03-0.48,29.4c0,0-1.69-19.76-2.17-25.55c0,0,0.72,23.86-6.02,25.79
		l-6.75-1.45c0,0,2.17-10.36,3.62-17.59c0,0-4.82,12.29-6.99,16.39l-7.47-2.41c0,0-2.49-4.45,0.48-12.45
		c0.49-1.3,1.12-2.7,1.93-4.18c5.78-10.6,12.05-20.24,12.29-24.34c0,0-15.18,21.45-17.35,29.4c0,0,2.89-18.08,8.92-26.99
		c6.03-8.92,6.75-17.83,6.75-19.76c0-1.93-3.13-9.88-3.13-14.46c0-2.86-0.37-7.77-0.54-11.83c-2.67-1.25-4.52-3.95-4.52-7.09
		c0-2.16,0.87-4.11,2.29-5.53c-0.82-1.04-1.55-2.15-2.05-3.27c-1.93-4.34-32.05-49.41-39.28-54.23c-2.9-1.94-6.7-3.32-10.74-4.32
		c0.88,2.2,1.63,4.09,2.2,5.52c5.42,13.55,15.99,40.37,16.26,41.18c0.27,0.81-15.17,6.5-23.03,9.21
		c-7.86,2.71-61.78,21.95-61.78,21.95l-8.4-20.05c0,0-13.28-4.88-20.86-15.44c-7.59-10.57-16.53-38.2-15.17-43.62L2035.8,455.83z"/>
	<path class="st0" d="M1782.57,274.5c0,0,1.36-1.16,2.91-1.94s1.55-6.2-0.39-13.76c-1.94-7.56,5.81-18.02,5.81-18.02l24.81-11.82
		l-5.62-51.55l34.04,33.74c0.25-8.27-1.26-16.01-6.62-20.01c-10.8-8.08-14.48-14.25-16.03-18.38c-0.2,0.03-0.41,0.06-0.62,0.06
		c-2.45,0-4.43-1.99-4.43-4.43c0-1.08,0.4-2.06,1.04-2.83c-0.47-2.21-1.04-6.55-1.04-7.86c0-1.74-2.33-5.96-4.36-9.3
		c-2.04-3.34-2.33-5.81-3.78-9.74c-1.45-3.92-2.04-5.52-1.45-8.58c0.58-3.05-0.87-5.96-0.87-5.96c1.89,1.02,2.62,1.16,2.76,4.22
		c0.15,3.05,5.52,12.21,5.52,12.21c-0.15-0.44-2.03-5.09-2.62-6.69c-0.58-1.6-1.45-8.43-1.45-8.43l4.36-0.29l0.58,6.4
		c0-0.15,0-0.37,0-0.73c0-1.6,0.73-5.81,1.16-5.81c0.44,0,2.04-0.58,2.04,0.44c0,1.02,0.15,9.59,0.15,9.59s0.44,2.76,0.29-0.58
		c-0.15-3.34,1.45-9.89,1.45-9.89l-0.15,7.27c-0.73,4.65,3.49,14.1,5.67,22.24c1.62,6.06,0.03,10.51-0.9,12.38
		c0.29,0.59,0.46,1.24,0.46,1.94c0,1.78-1.06,3.31-2.58,4.02c1.8,4.47,5.85,12.02,13.48,15.39c8.32,3.67,10.05,12.9,9.26,24.67
		l31.88,31.61l-1.74,71.13c0,0-31.98-21.9-32.37-22.48c0,0-12.79,6.78-19.77,7.95c-6.98,1.16-18.41-3.29-22.29-5.23
		c-3.88-1.94-11.82-10.66-13.57-12.79c-1.74-2.13-4.46-4.26-4.46-4.26l2.52-1.94L1782.57,274.5z"/>
	<path class="st0" d="M2328.35,1061.85h124.28c-0.04-0.09-0.07-0.18-0.11-0.26c-6.51-15.94-51.4-83.28-52.7-86.21
		c-1.3-2.93-5.21-5.2-5.21-7.48c0-2.28,0.65-4.55,3.58-14.96c2.93-10.41,4.88-41.31,6.83-57.58c1.95-16.27,3.9-43.92,3.9-43.92
		s1.95-3.58,4.88-6.18c2.93-2.6,11.39-9.43,13.99-11.39c2.6-1.95,2.93-6.51,3.9-12.04c0.98-5.53,0-11.39,0.33-14.31
		c0.33-2.93,0-7.81-2.6-14.96c-2.6-7.16-6.67-13.23-9.43-11.39c-3.9,2.6,0.98,14.64,0.98,14.64s-6.18,4.23-6.83,5.86
		c-0.65,1.63-9.11,6.83-11.39,7.48c-2.28,0.65-9.43,6.18-11.06,9.11c-1.63,2.93-3.9,12.04-4.88,18.22
		c-0.98,6.18-8.12,51.04-8.12,51.04l-0.74,5.01c-0.67,8.6-2.15,20.64-5.41,33.92c0,0-0.85,18.7-6.8,17.85
		c-5.95-0.85-22.52-2.97-24.64,7.22c-2.12,10.2,0.43,16.15,2.55,19.97c2.12,3.82-5.1,12.32-8.07,15.3c-2.97,2.97-9.77,12.75-9.77,17
		c0,4.25-0.43,10.62-0.43,10.62l6.37,8.5c0,0-1.27,12.32-0.85,17.85c0.42,5.52,0,6.37-1.7,12.32
		C2328.37,1055.97,2328.26,1058.98,2328.35,1061.85z M2403.37,819.98c0,0,4.71-4.63,5.57-5.89c0.86-1.26,2.2-2.51,2.2-2.51
		s8.63-0.71,10.83-1.33l0.16,2.43c0,0-1.33,0.55-2.04,1.26c-0.71,0.71-0.94,1.41-1.49,1.65c-0.55,0.24-2.28,0.78-2.9,1.49
		c-0.63,0.71-1.41,0.78-2.2,1.33c-0.78,0.55-4.71,0.94-6.2,1.1C2405.8,819.66,2403.37,819.98,2403.37,819.98z"/>
	<path class="st0" d="M1609.45,993.49c0.95-13.72,8.04-37.36,6.15-50.6c-1.89-13.24-3.78-19.39-1.42-30.27
		c2.36-10.88,1.89-14.66,5.2-18.44c3.31-3.78,5.2-4.73,5.2-4.73s4.26,7.57,6.62,7.09c2.36-0.47,1.42-46.82,3.31-59.12
		c1.89-12.3,2.37-66.68,5.2-72.36c2.84-5.68,6.15-17.03,4.26-26.01c-1.89-8.99-5.2-17.97-5.68-22.23
		c-0.47-4.26-7.57-16.08-9.93-19.39c-2.37-3.31-6.15-10.88-6.15-10.88s6.15-4.26,9.93-0.47l-7.57-15.13c0,0,1.89-5.68,10.4-1.42
		c8.51,4.26,9.46,9.93,11.82,15.61c2.36,5.68,12.3,23.17,14.19,26.48c1.89,3.31,4.73,2.84,8.04,8.99
		c3.31,6.15,6.62,14.66,6.62,14.66s5.68-17.03,13.24-15.13c7.57,1.89,5.68,2.84,2.37,8.51c-3.31,5.68-8.04,16.08-8.99,20.34
		c-0.95,4.26-4.26,11.35-7.57,15.61c-3.31,4.26-7.57,3.31-8.51,11.82c-0.94,8.51,0.47,52.5,0.95,68.58
		c0.47,16.08,3.31,43.98,4.73,51.55c1.42,7.57,1.89,18.92,3.31,21.76c1.42,2.84,7.57,8.99,9.46,16.08c1.89,7.09,10.88,18.92,9.93,35
		c-0.95,16.08-2.36,14.19-2.36,14.19s6.15,10.88,4.73,17.97c-1.42,7.09-3.31,6.62-2.37,8.99c0.95,2.36,7.57,8.04,9.46,12.77
		c0.02,0.06,0.05,0.11,0.08,0.17c0.13,5.26,0.33,10.53,0.59,15.81c-2.15,3.78-4.6,8-3.98,9.56c0.82,2.05,3.77,0.19,4.54,0.59
		c0.25,4.14,0.53,8.29,0.83,12.44h-114.93C1599.82,1035.89,1608.81,1002.84,1609.45,993.49z"/>
	<g>
		<path class="st0" d="M2062.99,1058.11c2.36-0.95,6.62-2.84,6.62-6.62s1.42-13.72,2.84-15.13s2.36-4.73,4.26-7.57
			s6.15-10.88,8.99-15.13c2.84-4.26,11.82-12.77,11.82-12.77l2.84-3.78c0,0,10.4-34.52,13.71-54.39
			c3.31-19.86,4.73-49.19,4.73-51.55s-3.78,0-3.31-3.78c0.47-3.78,2.84-4.26,1.89-7.57c-0.95-3.31-3.31-10.4-5.68-12.77
			c-2.36-2.36-7.57-12.3-9.46-15.13c-1.89-2.84-4.73-20.34-7.57-24.12c-2.84-3.78-8.04-6.62-8.04-8.04c0-1.42,4.73-4.73,9.46-1.42
			c4.73,3.31,11.82,11.82,11.82,11.82s4.73-33.11,11.82-33.11c7.23,0,2.36,11.35,0.47,16.08c-1.89,4.73-1.89,15.13-1.89,15.13
			l0.47,2.84l2.84-2.84c0,0,2.36-14.19,6.15-14.19c3.78,0,8.04,1.42,8.99,5.68c0,0,7.09-0.95,8.51,3.78
			c1.42,4.73,1.42,4.73,1.42,4.73s5.2,0,7.09,2.84c1.89,2.84,3.31,9.93,2.36,11.82c-0.95,1.89-0.47,13.24-0.95,17.97
			c-0.47,4.73-1.42,13.71-1.42,13.71l-2.36,4.73c0,0,4.73,0.95,3.31,4.73c-1.42,3.78-4.26,2.84-4.26,2.84s-1.89,8.99-1.42,13.72
			c0.47,4.73,4.26,47.77,3.31,56.28c-0.95,8.51-0.47,38.78-2.36,45.4c0,0,30.74,29.8,29.8,35c-0.78,4.28-3.16,16.23-5.82,24.55
			h-113.1C2061.51,1059.92,2062.23,1058.41,2062.99,1058.11z"/>
	</g>
	<path class="st0" d="M2734.83,1019.06c2.76-3.68,2.38-7.5,0.23-11.28c1.7-1.29,2.87-2.41,2.87-3.01c0-2.13,2.56-20.06,3.41-23.47
		c0.85-3.41,1.28-5.12,1.28-5.12s-20.06-49.5-29.44-65.29c-9.39-15.79-20.06-20.06-24.75-20.91c-4.69-0.85-11.95-8.11-15.36-14.51
		c-3.41-6.4-7.25-10.67-6.83-13.23c0.43-2.56-0.85-14.93-1.28-16.64c-0.43-1.71,3.84-5.55,9.81,5.97
		c5.97,11.52,5.55,14.08,5.55,14.08s8.96-1.28,10.67-1.28c1.71,0,2.99-5.12,1.71-9.39c-1.28-4.27-0.85-10.67-3.84-14.93
		c-2.99-4.27-8.11-14.08-11.52-16.64c-3.41-2.56-8.96-5.97-9.39-7.25c-0.43-1.28-4.27-4.27,0.85-5.97
		c5.12-1.71,13.66,6.4,20.48,11.09c6.83,4.69,9.81,8.11,9.81,8.11s4.27-4.27-8.11-11.95c-12.38-7.68-17.92-12.37-11.52-16.64
		c0,0,11.95,4.27,16.64,8.96c0,0,6.83,0.43,10.24,1.71c3.41,1.28,10.24,5.12,11.52,5.97c1.28,0.85,8.53,17.5,10.67,20.91
		c2.13,3.41,0.85,7.25,0,9.81c-0.85,2.56-6.83,13.23-4.27,17.07c2.56,3.84,5.12,4.69,7.25,9.39c2.13,4.69,15.79,19.2,18.77,22.62
		c2.99,3.41,15.36,15.79,15.36,15.79s0.43-4.69,2.13-5.55c1.71-0.85,0-14.93,5.55-19.63c5.55-4.69,22.62-14.93,39.26-13.23
		c16.64,1.71,46.51,1.71,51.21,1.71c4.69,0,15.36-0.85,15.36-0.85s18.77,29.87,17.92,35.84c-0.85,5.97,0.43,10.67,0.85,15.36
		c0.43,4.69-1.28,18.35-1.71,21.76c-0.43,3.41-2.56,21.76-2.13,28.59c0.43,6.83-1.71,27.31-3.41,34.14
		c-1.71,6.83-5.12,11.52-8.96,16.22c-3.84,4.69-5.97,8.11-10.24,14.08c-4.27,5.97-7.68,10.24-6.83,13.23c0.37,1.29,0.82,3.94,1,7.15
		h-141.39C2720.96,1048.46,2723.09,1034.06,2734.83,1019.06z"/>
	<g>
		<path class="st0" d="M3089.14,1060.44c2.82-6.49,3.67-7.9,4.52-7.06c0.85,0.85,16.66-27.67,35.57-49.12
			c18.91-21.45,31.62-42.34,35.29-53.07c3.67-10.73,3.67-24.28,9.88-34.16c6.21-9.88,16.66-30.21,17.78-29.64
			c0,0,6.49-17.78,10.16-17.5c0,0-1.41-4.52,5.08-1.98s-0.28,27.67-3.1,37.83c0,0,6.49-14.11,9.6-22.58c0,0,10.45-6.21,3.39,20.33
			c-7.06,26.54-8.19,28.23-7.9,29.64c0.28,1.41-0.28,9.88-0.28,9.88l3.11,0.28c0,0,5.36-12.7,11.29-18.91
			c5.93-6.21,14.96-7.34,12.7-0.56c-2.26,6.78-3.67-2.26-7.62,14.68c-3.95,16.94-5.36,12.99-7.06,18.07
			c-1.69,5.08-10.44,11.01-14.68,14.11c-4.23,3.11-13.83,5.65-21.17,14.68c-7.34,9.03-15.53,22.3-20.04,31.05
			c-4.52,8.75-16.94,28.23-21.45,43.47c-0.21,0.7-0.39,1.33-0.58,1.98h-55.17C3088.74,1061.29,3088.98,1060.81,3089.14,1060.44z"/>
	</g>
	<path class="st0" d="M2536.57,1035.6c4.52-7.3,8.35-16,8.7-18.43c0.35-2.43,5.56-45.56,6.61-63.3s1.04-59.12-1.04-64.34
		c-2.09-5.22-7.3-11.13-8.35-17.04c-1.04-5.91,0-10.43-3.83-16.69c-3.83-6.26-9.74-13.56-12.52-18.43
		c-2.78-4.87-4.17-10.09-4.52-11.48c-0.35-1.39,4.17-5.56,12.17,3.13c8,8.69,9.04,15.65,15.65,16.35c6.61,0.7,11.13,2.09,12.87,0
		c1.74-2.09,9.04-9.39,9.04-10.43c0-1.04-6.26-14.26-5.22-17.04c1.04-2.78,4.87-4.52,5.22-1.04c0.35,3.48,2.43,5.91,3.48,7.65
		c1.04,1.74,1.04,1.74,1.04,1.74s7.65-6.61,7.65-9.74c0-3.13-2.09-17.39,1.04-21.22c3.13-3.83,4.87-2.43,4.87-2.43l1.04,6.96
		c0,0,1.74-17.04,10.78-13.91c1.04,0.36-1.74,8.69-1.74,8.69s3.48,0.35,2.78,2.43c-0.7,2.09-2.43,6.96-2.43,11.48
		c0,4.52-2.09,7.3-2.78,13.56c-0.7,6.26-4.52,10.78-5.22,15.65c-0.7,4.87-1.04,11.82-2.43,15.3c-1.39,3.48-6.26,14.61-5.91,17.74
		c0.35,3.13-2.09,10.43-2.43,15.3c-0.35,4.87-0.35,8,0.35,11.82c0.7,3.83,0,9.74,0,15.3c0,5.56,2.09,35.13,2.78,49.39
		c0.7,14.26,3.83,31.65,3.83,31.65s8,27.13,9.39,34.08c1.39,6.96,0.7,14.61-2.09,21.91c-0.61,1.6-2.08,5.86-4.04,11.64h-64.85
		C2530.27,1050.44,2534.35,1039.19,2536.57,1035.6z"/>
	<path class="st0" d="M2191.31,1046.89c-0.87-6.61-1.39-8.35-1.39-8.35s-6.09,0.87-7.48-0.7c-1.39-1.56,0-2.09,0.7-3.3
		c0.7-1.22,4.87-4,4.17-6.09c-0.7-2.09-2.09-21.04,1.04-28.34c3.13-7.3,3.13-8.69,7.83-14.43c4.7-5.74,7.13-11.83,8-13.22
		c0.87-1.39,2.78-3.3,3.83-5.74c1.04-2.43,2.26-4.17,3.83-7.83c1.56-3.65,0.87-5.04,2.96-8.35c2.09-3.3,3.13-5.04,5.22-6.43
		c2.09-1.39,11.3-5.22,11.3-5.22s-5.39-43.13-6.78-45.39c-1.39-2.26-15.48-30.78-16-32c-0.52-1.22,10.26-8.69,10.61-9.91
		c0.35-1.22-5.22-22.78-7.3-26.61c-2.09-3.83-13.91-20.35-16-36.69c-2.09-16.35-2.09-22.78-2.61-23.65
		c-0.52-0.87-6.26-12.87-8-13.91c-1.74-1.04-8.35-4.7-9.22-5.56c-0.87-0.87-3.13-3.83-1.39-4.87c1.74-1.04,7.83-0.52,12.17,1.39
		c4.35,1.91,11.13,4.35,12.35,5.22c1.22,0.87,3.13-1.04,1.22-4.7c-1.91-3.65-16.87-24.69-18.26-26.61c-1.39-1.91-3.83-5.04-0.52-8
		c3.3-2.96,8.69,6.61,10.61,7.65c1.91,1.04,5.04,5.56,6.43,7.13c1.39,1.56,10.26,10.09,11.65,11.82c1.39,1.74,2.78,3.48,2.78,3.48
		s-0.87-11.65-2.61-14.43c-1.74-2.78-12.35-23.13-12.87-26.26c-0.52-3.13,0.17-5.04,3.83-4.7c3.65,0.35,6.26,5.74,8.35,9.04
		c2.09,3.3,9.91,15.48,11.82,17.56c1.91,2.09,3.48,3.48,3.83,5.91c0.35,2.43,1.04,5.74,1.04,5.22c0-0.52,2.09-5.39,1.74-8
		c-0.35-2.61-1.56-10.61-2.09-12.69c-0.52-2.09-3.13-9.04-3.13-10.78c0-1.74-2.55-8.44,5.33-6.92c3.73,0.72,3.95,7.54,6.46,12.03
		c2.51,4.49,2.69,10.41,4.13,14c1.44,3.59,2.87,6.82,1.79,10.77c-1.08,3.95-2.69,9.15-3.23,14c-0.54,4.85-0.9,14.36-0.9,18.49
		c0,4.13-0.54,16.33,0.36,26.74c0.9,10.41,0.9,16.33,2.33,18.49c1.44,2.15,4.85,7.54,7.54,15.62c2.69,8.08,5.56,16.87,5.56,16.87
		s4.49,1.44,5.56,6.28c1.08,4.85,14.18,31.59,16.33,35.54c2.15,3.95,6.1,14,7.54,16.33s5.21,11.13,5.56,12.92
		c0.36,1.79,10.77,17.05,14,20.46c3.23,3.41,14.9,12.74,14.36,12.56c-0.54-0.18-2.51,4.13-2.87,7.18c-0.36,3.05,0.9,6.1-0.18,9.51
		c-1.08,3.41-1.44,5.56-1.44,5.56s4.49,10.05,6.1,27.28c1.62,17.23,2.33,23.15,2.33,25.31c0,2.15,0.18,5.74,0.18,5.74
		s5.74,6.1,8.62,12.03c0,0,16.16,12.31,27.93,26.47h-166.25C2190.98,1056.65,2191.77,1050.36,2191.31,1046.89z"/>
	<path class="st0" d="M1795.15,1038.85c1.85-8.9,8.53-33.74,12.61-44.87c4.08-11.12,30.41-51.17,33.74-60.44
		c3.34-9.27,16.32-33,16.32-35.23c0-2.22,2.22-1.11,1.85-2.22c-0.37-1.11,5.56-5.56,4.82-15.2c-0.74-9.64-7.79-30.78-7.79-35.23
		c0-4.45,2.6-5.93,2.97-9.27c0.37-3.34,0-9.64,0.37-14.09c0.37-4.45,1.85-7.04,3.71-10.75c1.85-3.71,8.16-17.06,8.53-20.39
		c0.37-3.34,5.93-4.08,9.64,1.48l-0.37,5.19c0,0,2.97,2.97,0,6.3l-0.37,12.24c0,0,3.34-11.49,8.16-10.01
		c4.82,1.48,4.45,9.64,2.97,17.8c-1.48,8.16-1.48,12.61-0.37,15.94c1.11,3.34,3.34,7.42,4.08,9.27c0.74,1.85,1.11,4.82,2.22,5.93
		c1.11,1.11,10.75,4.82,12.61,5.56c1.85,0.74,8.16,0,8.16,0s17.06-14.83,26.33-14.83c9.27,0,10.38,4.08,10.38,4.08
		s-7.42,5.56-10.01,10.38c-2.6,4.82-6.67,5.19-9.27,7.79c-2.6,2.6-7.79,7.42-8.9,10.01c-1.11,2.6-9.27,10.38-14.83,11.87
		c-5.56,1.48-12.98,9.27-13.35,12.61c-0.37,3.34-1.85,5.93-1.85,5.93l1.85,2.6c0,0-4.45,5.93-6.3,9.27
		c-1.85,3.34-3.71,18.91-4.82,21.51c-1.11,2.6-2.97,7.42-2.6,9.27c0.37,1.85-1.85,8.9-1.85,10.75c0,1.85-0.74,10.38-0.37,18.54
		c0.37,8.16,0.37,18.17,0,20.76c-0.37,2.6,4.82,3.71,1.85,10.38c-2.97,6.67-5.19,7.42-4.82,12.98c0.37,5.56,6.3,10.01,4.45,12.98
		c-1.85,2.97-4.82,7.42-5.93,11.49c-1.11,4.08-0.37,10.75,0.74,12.61c0,0,0.01,0.01,0.01,0.01h-87.19
		C1793.03,1054.36,1794.02,1044.27,1795.15,1038.85z"/>
	<path class="st0" d="M2137.99,1059.85c-2.51-6.28-28.26-28.26-35.8-32.66c-7.54-4.4-8.17-5.02-12.56-5.65
		c-4.4-0.63-19.47-11.93-21.98-12.56c-2.51-0.63-21.36-11.93-21.36-11.93s-0.71-14.19-1.62-16.19c-0.91-2-2.36-3.63-2.36-3.63
		s0.91-3.27,0.73-3.99c-0.18-0.73,11.07-21.78,11.8-25.95c0,0,1.45,3.63,4.9,3.81c3.45,0.18,7.8-4.54,9.26-7.8
		c1.45-3.27,5.63-13.43,5.63-17.24c0-3.81-2.18-5.63-4.9-6.17c-2.72-0.54-4.54,0.18-4.54,0.18s2.9-7.8,3.27-14.52
		c0.36-6.71,1.81-16.15,2.36-16.15c0.48,0,45.16-19.61,58.19-26.01c0.25,2.81,0.86,8.54,2.15,15.63
		c1.84,10.14,4.61,13.6,13.37,19.13s3.92,12.91,3.92,12.91s0,0-3.69,1.38c-3.69,1.38-1.15,4.61-1.38,5.53
		c-0.23,0.92-0.69,7.38-1.84,11.99c-1.15,4.61,3.23,16.37,3.23,16.37c-0.92-4.15-1.15-13.6-1.15-13.6
		c2.31,2.07,4.84,17.06,4.84,17.06c5.3-4.61-0.23-17.98-0.23-17.98c2.31,2.54,3.23,9.91,3.23,9.91c1.15-3-0.69-6.69-2.07-10.14
		c-1.38-3.46,0-9.45,2.77-12.91c2.77-3.46-2.07-7.15-2.07-7.15c4.15-10.6-5.99-14.75-13.37-22.59c-6.01-6.39-6.36-21.04-6.28-26.25
		c0.93-0.47,1.61-0.84,1.93-1.06c0,0-1.81-2.54-2.72-3.09c-0.91-0.54-107.44-59.34-109.25-60.25c-1.81-0.91-7.26,4.17-11.8,5.99
		c-4.54,1.81-90.92,33.21-92.19,34.48c-1.27,1.27-0.73,3.45,0.73,4.36c1.45,0.91,51,30.67,51,30.67s-2.9,13.79-3.27,16.7
		c-0.36,2.9-1.45,9.8-1.27,11.61c0.18,1.81,0.36,3.99,0.36,3.99s-3.99-1.81-7.8,2.54c-3.81,4.36-2.18,7.44-2.18,12.7
		c0,5.26-1.09,9.98-0.54,10.71c0.54,0.73,4.17,9.62,8.89,9.44s5.99-1.45,5.99-1.45s1.81,4.72,1.81,5.26
		c0,0.54-8.71,12.16-10.89,16.33c-2.18,4.17-7.99,8.53-9.07,9.98s-4.9,0-4.9,0s-19.96-4.9-24.14-4.17c0,0-16.33-6.17-19.06-7.08
		c-2.72-0.91-8.35-3.08-8.89-4.54c-0.54-1.45-2.9-7.62-2.54-9.07c0.36-1.45,3.63-3.81,2.54-10.53c-1.09-6.72-4.9-13.43-4.9-13.43
		s-11.07-1.81-17.24-1.81s-13.43,3.45-15.97-3.27c-2.54-6.71-7.44-26.31-10.53-31.21c-3.08-4.9-15.43-21.23-14.34-26.31
		c1.09-5.08,0.18-20.51,0-28.49c0,0,6.53,1.63,7.26-12.89s-0.73-25.95,1.45-27.95c2.18-2,9.8-9.26,10.34-13.07
		c0.54-3.81,0.18-16.51,2-20.14c1.81-3.63,2.18-11.25,3.63-13.43s8.89-9.07,13.25-12.34c4.36-3.27,7.44-7.8,8.17-8.53
		c0.73-0.73,2.36-4.72,1.45-11.8c-0.91-7.08,0.91-10.16,0.54-11.07c-0.36-0.91-1.81-2.36-1.45-3.27c0.36-0.91,5.08-8.53,4.54-12.89
		c-0.54-4.36-10.16-5.08-12.34-2.9c-2.18,2.18-2.18,2.18-2.18,2.18s-7.44-3.81-9.62-3.63c-2.18,0.18-8.35-0.36-11.07,1.63
		c-2.72,2-4.36,4.54-4.36,4.54s-5.81-2.18-8.53-1.09c-2.72,1.09-5.63,3.63-6.35,3.45c-0.73-0.18-5.81,0.18-7.8,1.82
		c-2,1.63-4.72,9.26-5.63,13.07c-0.91,3.81-2.69,17.53-2.69,17.53s-7.18-1.96-14.36,15.66c0,0-7.83,8.48-18.27,14.36
		c-10.44,5.87-40.46,17.62-50.9,47.64c-10.44,30.02-16.97,45.03-21.53,49.59c-4.57,4.57-22.19,31.98-31.32,57.43
		c-9.14,25.45-17.62,40.46-17.62,40.46s-9.79,1.31-11.09,7.18c-1.31,5.87,1.3,30.67-1.31,40.46c-2.61,9.79-7.83,21.53-9.79,26.75
		c-1.96,5.22-1.31,19.58,0,23.49c0.71,2.13,0.84,10.24,2.18,17.93h502.07C2138.49,1061.08,2138.2,1060.38,2137.99,1059.85z"/>
	<path class="st0" d="M2569.02,1034.81c-21.36-4.24-32.66-7.22-32.66-7.22s0-3.77-5.81-3.61c-5.81,0.16-12.56,0.16-12.56,0.16
		l-2.2,2.04c0,0-13.82-1.41-15.7-0.94c-1.88,0.47-2.2-8.64-2.36-9.74c-0.16-1.1,1.41-0.63,1.41-0.63s-8.79-15.7-10.21-16.8
		c-1.41-1.1-2.98-2.83-2.98-2.83s-0.31-8.95,1.1-10.36c1.41-1.41,5.81-14.76,5.34-15.55c-0.47-0.79,2.83,2.51,5.65,1.26
		c2.83-1.26,4.4-7.38,4.55-8.64c0.16-1.26,0-5.5,0.94-7.07c0.94-1.57,1.26-4.4,0.79-6.12c-0.47-1.73-3.14-8.17-3.93-8.32
		c-0.78-0.16,0.31-3.14,0.31-4.87s1.1-5.03,1.41-5.81c0.31-0.79-0.16-4.71-0.31-5.5c-0.16-0.79-0.31-3.77,0.16-5.03
		c0.47-1.26-0.79-5.65-0.79-5.65l-0.94-2.83l3.61,3.77c0,0-0.63-2.36-0.94-3.45c-0.31-1.1,1.41-1.1,1.41-1.1l-1.57-2.83
		c0,0-4.87-9.89-5.65-10.68c-0.79-0.79-2.51-4.87-4.08-5.65c-1.57-0.79-7.85-5.5-8.64-6.75c-0.78-1.26-0.47-3.14-2.36-4.24
		c-1.88-1.1-3.3-1.88-6.91-3.14c-3.61-1.26-8.17-2.51-11.46-2.98c-3.3-0.47-9.58,0-11.46-0.16c-1.88-0.16,1.1-4.4,8.32-3.3
		c0,0-6.12-2.51-14.76,2.51c0,0-7.54,0.78-8.01,0.78s1.41-1.88,5.97-3.3c0,0-7.54,0-13.19,6.91c0,0-4.4,7.22-5.34,7.22
		s-0.31-3.77-0.31-3.77s-3.93,5.02-4.71,5.18c-0.79,0.16-4.4,3.14-5.65,4.24c-1.26,1.1-2.2,0.63-3.14,3.14
		c-0.94,2.51-2.04,0.47-3.77,2.83c-1.73,2.36-3.93,3.77-4.55,5.81c-0.63,2.04-0.94,1.88-1.26,4.55c-0.31,2.67-0.31,2.2-1.73,4.71
		c-1.41,2.51-2.98,5.18-2.2,6.6c0.78,1.41,1.57,3.3,2.04,5.34c0.47,2.04,0,0.94,1.26,3.93c1.26,2.98,2.04,7.54,2.2,9.89
		c0.16,2.36,0.79,3.3,0.79,3.3s-3.3,3.3-3.45,7.54s1.57,7.38,1.41,11.31c-0.16,3.93-0.94,5.97,0.63,7.54
		c1.57,1.57,4.24,2.51,5.65,2.98c1.41,0.47,3.45,0.79,3.45,0.79s2.2,6.75,3.3,8.32c1.1,1.57,1.73,7.54,3.14,9.58
		c1.41,2.04,1.57,10.05,2.04,11.31c0.47,1.26,0.79,2.83,0.79,2.83s-1.73,2.04-2.04,2.51c-0.31,0.47-4.24,15.86-4.71,19.31
		c-0.47,3.45,0.78,3.45,0.78,3.45s-2.2,2.36-3.45,2.04c-1.26-0.31-16.96-12.88-22.14-14.13c-5.18-1.26-9.74-3.61-9.58-5.5
		c0.16-1.88-0.31-9.58-0.47-11.15c-0.16-1.57-8.95-19.94-10.36-23.55c-1.41-3.61-1.57-6.12-3.45-7.07c-1.88-0.94-5.65-2.2-8.17-1.41
		c-2.51,0.79-5.65,1.88-7.54,1.26c-1.88-0.63-8.79-6.12-13.82-7.38c-5.02-1.26-7.54-1.88-8.79-2.83
		c-1.26-0.94-20.1-28.58-24.02-33.13c-3.93-4.55-15.39-25.75-17.59-28.42c-2.2-2.67-8.79-12.88-10.21-13.5
		c-1.41-0.63-3.14-4.24-5.02-5.02c-1.88-0.78-9.58-14.92-10.52-20.1c-0.94-5.18-2.04-11.31-1.88-14.45
		c0.16-3.14-1.1-11.15-1.1-13.03c0-1.88-0.47-4.87-0.47-4.87l-11.15-0.79c0,0-2.98-13.66-4.4-17.74c-1.41-4.08-5.02-7.38-6.91-8.95
		c-0.99-0.82-2.84-2.68-4.71-4.19c0.51-1.15,1-2.34,1.43-3.57c6.28-17.8,3.84-52.69-0.7-59.32l-17.1-5.23c0,0-0.35-31.41-4.54-38.38
		l-19.99,12.43c1.7-22.57-1.48-44.05-17.3-50.99c-33.63-14.77-23.9,23.89-36.68,37.77c-0.85-0.75-1.95-1.21-3.16-1.21
		c-2.06,0-3.8,1.29-4.49,3.11c-1.26-0.34-4.14-0.2-9.62,4.26c-7.93,6.46-9.29,11.22-12.24,14.16c-2.95,2.95-4.08,7.36-6.12,7.14
		c-2.04-0.23-3.74,1.81-4.19,6.57c0,0,1.81-4.76,5.33-5.32c0,0-3.17,2.49-2.61,6c0.57,3.51,1.47,3.4-0.45,6.23
		c0,0,3.74-1.93,2.72-6.12c-1.02-4.19,2.38-5.78,4.42-7.02c2.04-1.25,5.55-2.04,6.34-3.17c0.79-1.13-4.65,6.57-5.1,11.78
		c-0.45,5.21-0.23,8.72-1.47,9.4c0,0,2.95-1.81,3.17-6.91c0.23-5.1,3.17-9.29,4.42-10.88c1.1-1.4,2.55-3.23,2.87-3.88
		c-0.37,1.28-2.15,8.87-1.74,12.83c0,0,0.57,6.23-0.68,7.14c0,0,2.38-1.59,2.38-5.66s1.13-11.1,2.15-12.8
		c1.02-1.7,1.7-1.93,4.08-4.42c2.38-2.49,3.4-3.85,4.65-5.89c0.94-1.54,3.43-5.09,4.69-7.17c0.47,0.15,0.96,0.26,1.48,0.26
		c2.66,0,4.82-2.16,4.82-4.82c0-0.66-0.13-1.29-0.37-1.86c0.61-0.51,1.22-1.06,1.85-1.68c4.58-4.58,8.85-37.21,17.69-38.13
		c8.85-0.92,21.05,3.05,23.49,8.54c2.44,5.49,9.15,10.98,7.93,30.2c-0.32,5.04-0.85,9.96-1.46,14.55l-54.27,33.74l5.93,107.82
		l40.13-21.29c0,0,20.24,1.4,22.68,9.77c0,0,5.19-6.11,7.58-10.04c1.27,0.2,2.54,0.24,3.59-0.08c3.49-1.05,5.58,3.14,6.63,5.58
		c1.05,2.44,0.35,12.21,0.35,12.21s5.23,18.15,4.54,18.49c-0.7,0.35,3.14,21.98,2.79,23.38c-0.35,1.4,1.05,9.42,1.05,9.42
		s-6.98,0-11.86,0.35c-4.89,0.35-9.77,3.84-9.77,3.84s2.79,3.14,7.68,11.86c4.89,8.72,9.42,10.82,8.72,18.15
		c-0.7,7.33-0.35,9.07-0.35,9.07s10.47,12.91,15.35,18.15c4.89,5.23,11.52,9.77,13.96,11.51c2.44,1.74,5.23,23.38,14.31,42.92
		c9.07,19.54,17.1,33.15,21.29,37.69c4.19,4.54,6.98,8.03,14.31,15.35c0.69,0.69,1.45,1.5,2.24,2.36h305.79
		C2598.21,1051.21,2583.85,1037.76,2569.02,1034.81z"/>
	<path class="st0" d="M3081.02,1060.06c-0.61-5.65-3.23-15.33-1.82-19.97c1.41-4.64,8.68-15.94,9.08-18.16
		c0.4-2.22,2.62-16.14-0.4-19.77c-3.03-3.63,6.66-4.84,6.25-6.46c-0.4-1.61-5.25-6.66-4.84-10.29c0.4-3.63,1.82-9.68,2.62-13.11
		c0.81-3.43,2.62-10.09,2.22-12.91s1.01-4.24,2.22-7.06c1.21-2.82,1.61-3.43,2.82-7.67c1.21-4.24,1.61-5.65,3.63-7.67
		c2.02-2.02,9.48-14.93,10.9-19.37c1.41-4.44,1.82-12.31,4.24-15.54c2.42-3.23,10.29-11.1,10.29-16.75c0-5.65-1.82-14.53-1.21-15.74
		c0.6-1.21,3.23-11.1,4.44-15.33c1.21-4.24,4.44-14.12,3.83-17.75c-0.61-3.63-2.42-8.68-1.41-11.5c1.01-2.82,3.83-10.29,5.45-10.69
		c1.61-0.4,7.67-4.84,9.08-7.87c1.41-3.03,4.64-10.29,5.04-14.73c0.4-4.44,3.23-12.91,5.04-14.53c1.82-1.61,4.64-2.22,6.66-5.04
		c2.02-2.82,9.48-21.39,9.48-27.84c0-6.46,3.03-15.74,3.43-17.15c0.4-1.41,14.93-34.3,15.54-36.72c0.6-2.42,2.02-5.25,4.44-6.86
		c2.42-1.61,13.72-9.48,15.54-11.9c1.82-2.42,3.23-5.04,2.62-6.25c-0.61-1.21-0.4-6.05-1.41-7.47c-1.01-1.41-0.61-5.85-1.41-6.66
		c-0.81-0.81-0.2-3.43-2.02-3.63c-1.82-0.2-1.82-1.41-2.22-2.02c-0.4-0.6-3.43-1.82-4.24-2.82c-0.81-1.01,0.4-2.82,0.4-4.44
		c0-1.61-2.42-7.46-1.01-9.08c1.41-1.61,5.04-4.84,5.04-4.84s11.54-33.43,17.92-52.76c8.97-8.2,29.2-32.6,32.65-38.63
		c3.76-6.59,2.59-16.93,1.41-21.17c-1.1-3.98-5.94-13.97-7.7-16.92c3.2-0.77,5.58-3.63,5.58-7.07c0-2.76-1.55-5.13-3.8-6.37
		c-0.12-0.14-0.19-0.22-0.19-0.22s0-3.53,0.47-6.59c0.47-3.06,0-4.23-1.65-15.05c-1.23-8.05,2.24-14.92,4.09-17.92l-4.32,6.39
		c-0.24-1.41-1.88-4.23-3.53-8.94c-1.65-4.7-5.88-11.29-11.99-13.41c-6.11-2.12-8.94-7.53-8.94-7.53c-2.59,3.06-0.24,7.29-0.24,7.29
		c-4.47-3.76-9.17-0.47-9.17-0.47c3.76-0.47,7.53,6.35,7.53,6.35c-5.64-6.35-8.7-2.12-8.7-2.12c3.76-0.94,6.59,5.64,6.59,5.64
		c-3.53,0.47-6.59-3.06-6.59-3.06c-0.47,3.29,6.35,5.88,6.35,5.88c-7.29,0.94-8.47-2.82-8.47-2.82c-1.18,4,5.88,4.7,5.88,4.7
		c6.78-0.68,12.57,6.45,15.28,10.49c-2.74-2.57-7.52-2.73-7.52-2.73c7.53,0.47,10.35,14.35,10.35,14.35
		c-3.29-6.35-7.29-7.29-7.29-7.29c3.06,0.71,7.29,10.35,8.94,12.94c1.65,2.59,3.53,9.64,4.23,13.17c0.11,0.56,0.31,1.21,0.55,1.89
		c-1.48,1.33-2.43,3.25-2.43,5.4c0,3.84,2.98,6.96,6.76,7.24c0.35,1.61,0.99,3.33,2.18,4.52c2.82,2.82,5.64,10.82,6.35,17.64
		c0.71,6.82-2.82,18.11-12.23,29.4c-6.1,7.33-13.87,14.93-18.59,19.38c0.96-2.98,1.68-5.3,2.04-6.6
		c2.42-8.88,21.59-60.73,21.59-60.73s-22.8,30.26-26.03,31.27c-3.23,1.01-12.31-2.82-14.93-3.03c-2.62-0.2-26.63-9.08-27.64-9.08
		s-24.21,30.67-26.63,36.11c-2.42,5.45-11.7,31.27-11.7,31.27s-8.68,8.68-7.87,11.9c0.81,3.23,8.27,9.08,8.27,9.08
		s11.1,1.61,16.75,3.63c5.65,2.02,13.11,7.87,18.56,8.07c5.45,0.2,15.13,4.84,15.13,4.84l-5.25,16.14c0,0-1.41-3.03-3.63-1.21
		c-2.22,1.82-3.63,6.86-4.64,7.26c-1.01,0.4-8.27,5.65-9.89,6.05c-1.61,0.4-5.25,1.61-6.66,5.65c-1.41,4.04-2.02,13.11-2.22,17.15
		c-0.2,4.04,0.2,5.85-1.82,10.49c-2.02,4.64-16.14,36.72-16.14,36.72s-118.03,32.08-129.93,38.33c-11.9,6.25-31.88,23.81-32.08,34.1
		c-0.2,10.29,3.43,24.01,4.44,27.04c1.01,3.03,4.44,12.31,3.83,14.73c-0.61,2.42-2.02,3.83-2.22,5.85c-0.2,2.02,0.2-9.48-4.64-18.96
		c-4.84-9.48-7.06-15.94-8.68-15.13c-1.61,0.81-3.63-3.43-4.24-5.25c-0.61-1.82-2.02-4.84-5.45-4.24c-3.43,0.6-5.25,0.81-7.46-0.61
		c-2.22-1.41-3.03-2.82-5.85-2.02c-2.82,0.81-4.04,1.41-6.66,1.82c-2.62,0.4-13.52-0.2-16.54,1.21c-3.03,1.41-4.44,2.42-6.86,3.43
		c-2.42,1.01-7.44,3.08-7.44,3.08s-6.9,0.63-10.03,2.51c-3.14,1.88-11.92,9.41-15.05,12.54c-3.14,3.14-5.02,1.88-8.15,5.64
		c-3.14,3.76-4.39,9.41-5.02,13.17c-0.63,3.76,1.25,6.9-1.25,12.54c-2.51,5.64-3.76-1.25-2.51,5.64c1.25,6.9,0,8.78-1.88,13.17
		c-1.88,4.39,0.63,4.39,1.88,10.03c1.25,5.64,0.63,10.66,3.76,13.17c3.14,2.51,6.9,6.9,6.9,6.9s-3.76,3.76,0.63,11.29
		c4.39,7.53,7.53,13.8,10.66,15.68c3.14,1.88,17.56,5.02,17.56,5.02s-3.14,2.51-13.17,4.39c-10.03,1.88-38.26,3.76-42.02,5.64
		c-3.76,1.88-22.58,0-25.09,7.53c-2.51,7.53-9.41,12.54-6.9,20.7c0,0-11.29-0.63-20.07-4.39c-5.12-2.19-12.58-6.51-18.54-9.49
		c-4.58-15.06-17.27-24.63-21.84-34.19c-5.62-11.76-8.69-21.47-7.67-24.03c1.02-2.56,10.74-8.69,9.2-15.34
		c-0.16-0.7-0.39-2.73-0.63-5.09c0.16-0.09,0.33-0.21,0.51-0.37c4-3.76,3.85-12.18,3.06-13.64c-1.01-1.88-3.28-2.43-4.87-2.57
		c-0.49-2-1.42-4.05-3.18-5.42c-2.06-1.6-23.01-3.07-26.58,4.6c0,0-4.09,14.31-3.07,20.45c1.02,6.13-2.04,11.25,0.51,17.38
		c2.56,6.14,7.16,45.5,10.74,54.19c2.34,5.69,4.26,16.18,7.73,24.05c-3.29,4.27-5.41,8.05-5.72,11.83
		c-0.61,7.46-5.45,27.24-6.25,30.26c-0.81,3.03-2.82,5.65-1.41,8.27c1.41,2.62,6.25,10.09,6.46,12.11s-5.85,3.03-4.03,5.25
		c1.82,2.22,9.68,11.5,12.71,15.13c0.66,0.79,1.58,1.81,2.62,2.95h324.6C3081.13,1061.18,3081.07,1060.51,3081.02,1060.06z"/>
	<path class="st0" d="M1818.07,408.3c-1.22-4.05-4.86-2.84-4.86-2.84s-33.85,9.73-66.02,18.87c4.44-12.42,10.85-23.14,15.11-29.52
		c0.91,0.5,1.95,0.81,3.06,0.81c3.55,0,6.43-2.88,6.43-6.43c0-0.94-0.21-1.82-0.57-2.62c2.12-1.65,4.7-3.8,7.16-6.16
		c4.39-4.23-0.16-9.25,2.2-12.55c2.35-3.29,5.02-5.33,7.68-9.25c2.67-3.92,6.12-8.16,9.25-13.64c3.14-5.49,1.57-14.27,1.57-14.27
		c-2.04,9.72-6.74,13.49-6.74,13.49c2.67-2.98,5.18-14.27,5.18-14.27l-2.35-2.35c-4.08,2.67-12.39,22.27-11.61,19.6
		c0.78-2.67,3.76-10.51,5.49-12.7c1.73-2.2,4.55-8.31,4.55-8.31l-4.08-3.14l-2.98,4.71c0,0,1.72-4.86,1.1-5.96
		c-0.63-1.1-2.35-1.73-2.35-1.73s0.78-1.1-1.25,1.41c-2.04,2.51-3.61,13.02-3.61,13.02c-1.73-5.8,0.63-15.06,0.63-15.06
		c-2.2,4.86-3.29,9.57-2.98,15.06c0.31,5.49-4.71,14.43-4.71,14.43c-1.25,5.18-3.76,11.45-4.71,14.27s-0.47,5.49-0.31,7.53
		c0.16,2.04-0.16,3.29-1.88,6.12c-1.05,1.72-1.75,4.3-2.14,6.06c-3.05,0.5-5.39,3.13-5.39,6.33c0,2.26,1.17,4.24,2.94,5.39
		c-8.7,11.25-14,21.49-17.13,30.46c-23.04,6.54-44.74,12.65-51.92,14.48c-17.43,4.46-25.94,8.92-25.94,8.92
		c5.68,47.84,26.35,130.13,26.35,130.13c4.05-3.65,40.94-12.57,42.97-12.57c2.03,0,10.54,2.03,12.16,1.62
		c1.62-0.41,3.24,2.03,24.32-2.43c21.08-4.46,29.59-18.65,29.59-18.65c5.68-1.62,42.57-12.97,42.57-12.97
		S1819.29,412.36,1818.07,408.3z"/>
	<path class="st0" d="M2468.08,496.86c-4.82,1.14-5.33-2.53-5.33-2.53l7.98-10.76c0,0,15.69-1.13,21.78,0.99s5.06,0.21,5.06,0.21
		s-0.69-3.08-4.64-4.89c-3.95-1.8-6.44-6.38-9.06-9.4c-2.63-3.02-9.31-10.75-11.59-9.5c-2.29,1.24-19.02,5.9-23.25,7.22
		c-4.23,1.31-9.66-4.13-16.17-7.01c-6.51-2.88-34.17-16.49-36.73-17.56c-2.56-1.08-11.46-5.62-14.37-5.52c0,0-4.84,28.37-9.82,57.53
		c-8.83-13.83-16.01-32.39-10.58-52.35c4.94-18.15,5.71-28.94,4.54-36.09c0.14-0.07,0.28-0.13,0.42-0.2
		c6.32-3.44,8.65-11.34,5.21-17.66c-0.4-0.73-0.86-1.4-1.36-2.02c0.38-1.96,0.72-4.09,0.97-6.37c0.87-8.23-0.76-8.68-3.09-14.42
		c-2.33-5.74-2.85-8.14-5-11.74c-2.16-3.6-3.33-7.58-4.17-11.3c-0.84-3.72-2.71-6.43-4-9.9c-1.29-3.47-1.18-8-1.36-10.14
		c-0.17-2.14-0.85-5.2-1.33-7.18c-0.48-1.98-3.49-4.96-3.49-4.96s0.48,1.98,1.85,7.04c1.37,5.07-0.33,4.5-0.95,6.63
		c-0.62,2.13-0.48,4.58,0.53,7.17s2.8,19.35,2.24,15.78c-0.56-3.57-2.14-7.93-3.24-11.06c-1.11-3.13-1.25-8.86-1.14-12.65
		c0.12-3.79-2.26-10.7-3.52-11.2c-1.27-0.5-6.74,2.18-6.74,2.18s0.27,9.24-0.04,8.67c-0.31-0.58-1.55-7.95-1.55-7.95l-2.27,0.93
		c0,0-2.57,1.1-2.22,2.85c0.36,1.74,8.65,16.62,8.65,16.62l-0.91,1.24c-0.4-0.38-2.41-1.52-4.03-7.05
		c-1.62-5.53-6.89-10.12-6.89-10.12s1.68,2.36,3.67,7.1c1.98,4.74,0.43,5.88,1.78,9.47c0.98,2.58,4.34,6.72,6.15,8.84
		c-1.18-0.78-3.19-1.46-6.88-4.71c-5.33-4.7-4.96-10.57-4.96-10.57c-0.95,3.35-3.56,4.02,3.23,9.57
		c6.79,5.55,20.84,21.91,19.34,38.82c-0.27,3.08-0.36,5.7-0.33,7.93c-3.61,3.99-4.52,9.97-1.8,14.96c2.82,5.18,8.65,7.68,14.15,6.51
		c0.96,6.61,0.92,14.69-1.64,23.74c-6.37,22.58-7.34,38.89,10.52,65.13c-3.41,19.99-6.85,40.12-8.8,51.52
		c-4.84,28.33,1.11,32,6.68,35.89c5.57,3.88,52.89,35.45,67.23,34.56l5.86-38.26c0,0,11.92-3.52,18.64-11.13
		c6.73-7.61,14.18-16.61,17.34-20.8c3.16-4.19,10.61-13.18,13.39-17.17c2.77-3.98,7.68-30.37,8.73-33.9
		c1.04-3.53,2.74-4.95,2.74-4.95S2472.89,495.73,2468.08,496.86z"/>
	<path class="st0" d="M2098.62,283.65c-2.31-26.98-1.54-30.83-1.54-30.83s-13.49-5.4-19.66-4.63c0,0-9.25-36.23-10.41-40.85
		c-1.16-4.63-3.08-7.32-3.85-2.31c0,0-34.34,16.44-63.5,31.19c-21.17-23.29-12.42-37.59-6.36-43.48c0.73,0.98,1.89,1.62,3.2,1.62
		c2.22,0,4.01-1.8,4.01-4.01c0-0.15-0.03-0.29-0.04-0.44c2.07-1.97,4.85-4.49,7.58-5.59c4.35-1.75,14.23-17.2,12.58-16.33
		c-1.65,0.87-3.29,3.99-3.41,4.49c-0.12,0.5-12.23,9.47-12.23,9.47s1.65-1.5,3.06-3.12c1.41-1.62,2.35-3.37,2.94-4.99
		c0.59-1.62,3.88-3.99,5.88-5.11s1.88-4.86,1.88-4.86c-0.59,0.25-3.29,2.12-4.47,3.24s-2.82,2.87-3.53,3.61
		c-0.71,0.75-3.29,2.12-3.29,2.12c1.53-1.37,1.29-1.62,4.47-5.36c3.18-3.74,5.06-3.99,4.94-4.36s-2.23-3.49-2.23-3.49
		s-2.82,0.12-3.88,0.75c-1.06,0.62-1.06,3.12-2.12,4.74c-1.06,1.62-4.82,6.48-4.82,6.48c0.12-0.87-0.94-3.37,0.71-4.11
		c1.65-0.75,3.88-7.11,3.88-7.11s-4.7,5.48-5.88,7.35c-1.18,1.87-1.53,5.11-2,7.98c-0.47,2.87-2,5.61-3.88,7.73
		c-0.8,0.9-1.24,2.08-1.51,3.15c-1.54,0.56-2.64,2.02-2.64,3.76c0,0.4,0.08,0.77,0.18,1.13c-7.24,4.41-8.04,13.91-8.69,20.11
		c-0.41,3.91,6.25,14.72,13.89,25.54c-20,10.14-37.14,19.29-38.39,21.47c-3.08,5.4-0.77,6.94-0.77,6.94l4.24,16.57
		c0,0,26.21,100.6,28.14,106.76c0,0,0.77,3.08,6.55-1.16c5.78-4.24,57.81-28.14,66.29-33.92c8.48-5.78,33.92-16.96,33.92-16.96
		l-3.08-13.49C2094.77,323.34,2100.94,310.62,2098.62,283.65z"/>
	<path class="st0" d="M2853.57,244.14c2.33-4.84,1.74-7.36,1.74-12.01c0-4.65,2.13-10.08,1.55-15.11
		c-0.58-5.04,2.13-20.93,2.13-20.93c-1.94,1.94-4.07,6.59-5.04,9.49c-0.97,2.91-2.52,8.33-1.94,12.79
		c0.58,4.46-2.52,18.41-2.52,18.41c1.74-6.78,0-11.63,0.19-15.89c0.19-4.26,0.97-13.76,2.52-17.44c1.55-3.68,3.49-7.17,3.49-7.17
		l-5.23-2.91c0,0-4.07,0.19-5.04,0.77s-1.74,5.23-1.94,7.75c-0.19,2.52-3.68,13.18-3.68,13.18s0.78-4.84,1.74-9.11
		c0.97-4.26,2.13-11.82,2.13-11.82s-3.49-1.16-3.29-0.58c0.19,0.58-3.49,7.94-3.88,11.63c-0.39,3.68-5.04,7.75-6.98,14.34
		c-1.94,6.59,0.58,24.22,0.58,24.22c-2.52-3.49-4.46-17.83-4.46-17.83c0.19,2.71-0.39,12.59,2.52,18.21
		c2.91,5.62,2.13,12.4,0.58,18.41c-0.95,3.7-0.95,9.31-0.81,13.07c-3.18,0.8-5.55,3.65-5.55,7.08c0,2.48,1.24,4.66,3.12,5.98
		c-0.03,0.06-0.04,0.11-0.07,0.17c-4.14,8.78-21.92,27.64-40.77,41.22c-13.53,9.75-23.52,26.18-28.75,35.75
		c-3.22-15.04-14.15-69.16-15.42-73.25l-28.48,9.01l4.07,4.36l3.49,20.93c0,0-31.1,3.49-34.01,4.36c-2.91,0.87-9.01,4.65-11.34,5.52
		c-2.33,0.87-19.76,12.5-17.15,13.37c2.62,0.87,7.56,3.49,8.14,4.36c0.58,0.87,0.29,10.46,2.33,15.11
		c2.03,4.65,3.2,14.53,4.36,18.31c1.16,3.78,4.65,10.75,5.81,12.79c1.16,2.03,5.52,9.59,6.1,12.5c0.58,2.91,3.78,11.92,3.49,15.4
		s-0.87,15.99,1.45,18.02c2.33,2.03,6.1,0.58,6.1,0.58l2.91,4.36c0,0,12.21-2.62,16.57-3.2c4.36-0.58,29.06-5.81,29.06-5.81
		s2.33,13.08,2.33,15.7c0,2.62-0.29,7.56-0.29,7.56l28.19-0.58c0,0,1.45-9.88,0-15.11c-1.38-4.98-14.6-70.73-16.63-79.57
		c2.2-4.96,5.81-12.79,13.14-22.45c11.04-14.53,25.58-24.41,34.3-30.23c8.03-5.35,21.48-25,23.55-28.07
		c0.56,0.14,1.13,0.23,1.73,0.23c3.88,0,7.02-3.02,7.28-6.83c3.12-3.18,7.12-7.83,7.26-9.22c0.19-1.94,1.55-10.66,3.29-15.89
		c1.74-5.23,20.54-24.61,20.54-24.61C2860.73,236.77,2851.24,248.98,2853.57,244.14z"/>
	<path class="st0" d="M2950.23,471.11l-11.42-26.28l-90.98,47.77c0,0,17.76,40.69,27.44,62.96c-5.82,9.7-9.3,20.91-6.38,32.55
		c6.33,25.27,12.44,49.47,14.27,62.26c-1.5,0.37-2.91,1.14-4.08,2.31c-2.96,2.98-3.33,7.54-1.13,10.92
		c-1.18,6.05-1.71,16.9,6.29,25.12c11.45,11.76,33.94,21.21,43.49,33.74c9.55,12.53,20.05,21.06,23.67,22.76
		c0,0-14.32-16.89-18.53-21.83c0,0,18.33,19.35,25.17,15.53l4.17-6.48c0,0-9.91-6.44-16.78-10.98c0,0,13.53,5.86,18.48,7.36
		l3.97-7.81c0,0-1.56-5.48-10.24-9.41c-1.41-0.64-3.02-1.24-4.83-1.77c-12.95-3.77-25.52-6.39-28.95-9.42c0,0,28.94,4.86,36.94,9.4
		c0,0-16.59-11.94-28.4-14.18c-11.8-2.25-19.44-8.69-20.96-10.21c-1.53-1.52-5.36-10.26-8.99-13.86c-2.26-2.25-5.86-6.41-8.94-9.74
		c1.11-3.1,0.43-6.69-2.06-9.16c-1.71-1.7-3.95-2.55-6.18-2.54c-0.18-1.47-0.48-2.92-0.98-4.19c-1.92-4.94-13.9-64.27-12.03-73.79
		c0.75-3.82,2.65-7.92,5.03-11.91c1.06,2.43,1.96,4.51,2.64,6.09c6.46,14.95,19.39,44.44,19.82,45.29
		c0.43,0.85,17.09-6.9,25.42-10.99c8.33-4.09,66-31.65,66-31.65l-9.27-22.43c0,0,6.59-14.35,4.19-28.68
		c-2.4-14.33-17.25-43.16-22.61-46.35L2950.23,471.11z"/>
	<path class="st0" d="M2531.72,412.17c0.52-7.49-4.47-10.93-7.06-12.65s-15.75-11.7-16.78-13.51c-0.76-1.33-7.88-4.47-11.71-6.93
		c0.6-1.36,0.94-2.86,0.94-4.44c0-4.96-3.29-9.16-7.8-10.53c0.02-1.07-0.03-2.2-0.17-3.4c-1.6-13.91-13.31-32.55-26.11-41.55
		c-13.5-9.5-11.54-17.48-10.67-19.62c3.6,1.98,7.27,3.94,11.01,5.86c60.75,31.14,92.92,39.82,92.92,39.82l-47.99-23.48l-2.55-16.34
		l25.02-46.46l-25.02-16.34l-10.21,8.68l0.51-13.27c0,0-25.02-22.46-51.05-17.87c0,0-25.53,39.82-23.99,55.14
		c0,0-40.93-25.63-56.52-37.65c12.33,10.9,43.53,36.93,84.17,59.84c-1.12,2.47-3.62,11.53,12.84,23.11
		c12.95,9.12,23.31,29.85,24.61,41.12c0.08,0.7,0.07,1.33,0.03,1.94c-0.01,0-0.02,0-0.02,0c-6.09,0-11.02,4.93-11.02,11.01
		c0,3.75,1.88,7.05,4.73,9.04c0.58,2.56,1.74,5.43,3.96,8.27c6.45,8.26,17.81,18.33,24.09,25.56c6.28,7.23,2.07,12.65,0.17,16.44
		c0,0,2.84-2.32,3.79-6.63c0.95-4.3-0.52-10.84-0.77-10.84c0,0,5.16,5.77,3.44,14.11c-1.72,8.35,0.09,5.42,2.07,8.95
		c0,0-2.32-4.48-1.03-7.66c1.29-3.18,1.55-10.41,0.17-14.11c-1.38-3.7-3.27-9.04-3.36-9.29c-0.09-0.26,12.74,6.71,13.94,15.14
		c1.2,8.43,3.79,9.38,5.16,10.41c0,0-5.16-11.96-5.08-17.3c0.09-5.34-1.03-8.09-4.22-11.27c0,0,7.23,1.29,8.09,8.35
		c0.81,6.68,3.4,6.5,4.4,6.82C2533.97,420.32,2531.27,418.71,2531.72,412.17z"/>
</g>
</svg>
